<svg width="388" height="58" viewBox="0 0 388 58" fill="none" xmlns="http://www.w3.org/2000/svg">
<path fill-rule="evenodd" clip-rule="evenodd" d="M0 29.3356C0 29.3356 22.1967 0.276584 57.0772 0.00137943C91.9578 -0.273826 144.543 40.7215 188.936 40.7215C233.33 40.7215 307.847 19.4656 344.577 19.9174C356.81 20.0679 369.284 23.4195 382 29.9723L381.572 58H0V29.3356Z" fill="#C4DFD8"/>
<mask id="mask0" mask-type="alpha" maskUnits="userSpaceOnUse" x="0" y="2" width="388" height="56">
<rect y="2" width="388" height="56" fill="#C4C4C4"/>
</mask>
<g mask="url(#mask0)">
<path fill-rule="evenodd" clip-rule="evenodd" d="M70.5117 29.7701C69.6849 33.4374 62.1873 40.7461 57.698 35.9265C56.3282 29.608 66.9384 28.2166 70.5117 29.7701V29.7701Z" fill="#67C1B0"/>
<path fill-rule="evenodd" clip-rule="evenodd" d="M54.9828 37.3495C54.7922 37.1429 54.8152 36.8294 55.0339 36.6495C55.2433 36.4769 60.2374 32.4067 66.4442 30.8076C66.7243 30.7356 67.0128 30.8915 67.0892 31.1558C67.1654 31.4201 67.0006 31.6929 66.7206 31.7649C60.7438 33.3047 55.7733 37.3568 55.7238 37.3975C55.6241 37.4794 55.5011 37.5196 55.379 37.5196C55.2325 37.5196 55.0865 37.4619 54.9828 37.3495Z" fill="#00A3AD"/>
<path fill-rule="evenodd" clip-rule="evenodd" d="M65.8187 14.2873C65.7457 14.2976 65.6693 14.2933 65.5943 14.272C65.3224 14.1951 65.1726 13.9242 65.2593 13.6675L66.1594 11.0086C66.2465 10.7521 66.5372 10.6062 66.8093 10.6833C67.0812 10.7605 67.2311 11.0311 67.144 11.2879L66.244 13.9467C66.1809 14.1326 66.011 14.2603 65.8187 14.2873Z" fill="#FF9216"/>
<path fill-rule="evenodd" clip-rule="evenodd" d="M63.5015 13.6303C63.4285 13.6406 63.3518 13.6363 63.277 13.615C63.0051 13.5379 62.8553 13.2672 62.9421 13.0105L63.8424 10.3519C63.9295 10.095 64.2202 9.94915 64.4921 10.0263C64.7639 10.1035 64.9138 10.3741 64.827 10.6309L63.9267 13.2897C63.8636 13.4756 63.6937 13.6033 63.5015 13.6303Z" fill="#FF9216"/>
<path fill-rule="evenodd" clip-rule="evenodd" d="M61.1845 12.9732C61.1112 12.9835 61.0348 12.9792 60.9598 12.9579C60.6879 12.8808 60.5381 12.6102 60.6251 12.3533L61.5252 9.69477C61.6122 9.43795 61.9027 9.2921 62.1748 9.36924C62.4467 9.44642 62.5966 9.71703 62.5095 9.97384L61.6095 12.6327C61.5466 12.8185 61.3765 12.9462 61.1845 12.9732V12.9732Z" fill="#FF9216"/>
<path fill-rule="evenodd" clip-rule="evenodd" d="M60.3642 11.7679L60.4407 11.5414L66.9315 13.382L66.8714 13.5593C66.307 15.2266 66.2463 17.0116 66.7704 18.6724C67.1111 19.7522 67.1084 20.9459 66.6816 22.11C65.6392 24.9522 62.3769 26.5853 59.3234 25.7933C56.0797 24.9518 54.2736 21.7611 55.2976 18.736C55.6682 17.6417 56.3578 16.7218 57.238 16.0394C58.6894 14.9143 59.7957 13.4462 60.3642 11.7679Z" fill="#FF685F"/>
<path fill-rule="evenodd" clip-rule="evenodd" d="M61.8482 11.9406L61.7722 12.1672C61.2034 13.8453 60.3387 15.3815 59.3105 16.6269C58.6871 17.3822 58.1472 18.3446 57.7766 19.4387C56.7707 22.4102 57.3941 25.2296 59.1672 25.7502C56.0223 24.8487 54.2906 21.7116 55.2977 18.736C55.6686 17.6419 56.3578 16.7218 57.238 16.0392C58.6901 14.914 59.7963 13.4464 60.3644 11.7677L60.4413 11.5414L61.8482 11.9406Z" fill="#E05955"/>
<path d="M58.9828 25.8558C58.9828 25.8558 51.3938 44.9513 56.0039 65.0352" stroke="#00A3AD" stroke-width="2" stroke-linecap="round" stroke-linejoin="round"/>
<path d="M28.0929 33.5497C28.0929 33.5497 34.6135 52.9008 30.5459 64.6702" stroke="#00A3AD" stroke-width="2" stroke-linecap="round" stroke-linejoin="round"/>
<path fill-rule="evenodd" clip-rule="evenodd" d="M30.9851 40.3666C30.8654 42.9898 26.2349 43.6646 23.2905 41.4561C20.346 39.2476 17.4032 38.4089 17.4032 38.4089C17.4032 38.4089 22.8722 34.5858 26.0795 35.2143C29.2867 35.8427 31.1048 37.7434 30.9851 40.3666Z" fill="#00A3AD"/>
<path fill-rule="evenodd" clip-rule="evenodd" d="M26.0115 34.1495V34.1495C27.1784 34.1495 28.1243 33.2604 28.1243 32.1636V26.9506H22.5783C21.4114 26.9506 20.4655 27.8397 20.4655 28.9365V28.9365C20.4655 31.8155 22.9485 34.1495 26.0115 34.1495Z" fill="#FF5A5A"/>
<path fill-rule="evenodd" clip-rule="evenodd" d="M30.2371 34.1495V34.1495C29.0703 34.1495 28.1243 33.2604 28.1243 32.1636V26.9506H33.6704C34.8373 26.9506 35.7832 27.8397 35.7832 28.9365V28.9365C35.7832 31.8155 33.3002 34.1495 30.2371 34.1495Z" fill="#FF464B"/>
<path fill-rule="evenodd" clip-rule="evenodd" d="M30.2371 19.7516V19.7516C29.0703 19.7516 28.1243 20.6407 28.1243 21.7375V26.9505H33.6704C34.8373 26.9505 35.7832 26.0614 35.7832 24.9646V24.9646C35.7832 22.0855 33.3002 19.7516 30.2371 19.7516Z" fill="#FF5A5A"/>
<path fill-rule="evenodd" clip-rule="evenodd" d="M26.0115 19.7516V19.7516C27.1784 19.7516 28.1243 20.6407 28.1243 21.7375V26.9505H22.5783C21.4114 26.9505 20.4655 26.0614 20.4655 24.9646V24.9646C20.4655 22.0855 22.9485 19.7516 26.0115 19.7516Z" fill="#FF464B"/>
<path fill-rule="evenodd" clip-rule="evenodd" d="M28.1243 23.9717C26.374 23.9717 24.9551 25.3053 24.9551 26.9505H28.1243V23.9717Z" fill="#FF8C4E"/>
<path fill-rule="evenodd" clip-rule="evenodd" d="M31.2935 26.9505C31.2935 25.3053 29.8747 23.9717 28.1243 23.9717V26.9505H31.2935Z" fill="#FFA555"/>
<path fill-rule="evenodd" clip-rule="evenodd" d="M28.1243 29.9294C29.8747 29.9294 31.2935 28.5958 31.2935 26.9506H28.1243V29.9294Z" fill="#FF8C4E"/>
<path fill-rule="evenodd" clip-rule="evenodd" d="M24.9551 26.9506C24.9551 28.5958 26.374 29.9294 28.1243 29.9294V26.9506H24.9551Z" fill="#FFA555"/>
<path fill-rule="evenodd" clip-rule="evenodd" d="M32.4878 23.8142C32.3992 23.7055 32.2334 23.6842 32.1176 23.7678L29.5374 25.6224L31.5105 23.1972C31.5991 23.0883 31.577 22.9325 31.4611 22.8492C31.3454 22.766 31.1796 22.7868 31.0908 22.8956L27.936 26.7735L23.8103 29.7389C23.6943 29.8222 23.6723 29.978 23.7609 30.0869C23.8128 30.1508 23.8914 30.1843 23.9709 30.1843C24.0267 30.1843 24.0832 30.1678 24.1311 30.1333L26.7113 28.2787L24.7382 30.7039C24.6496 30.8128 24.6716 30.9687 24.7876 31.0519C24.8354 31.0863 24.8919 31.103 24.9478 31.103C25.0273 31.103 25.1058 31.0694 25.1578 31.0055L28.3126 27.1276L32.4383 24.1622C32.5543 24.079 32.5764 23.9231 32.4878 23.8142Z" fill="#D7464B"/>
<path fill-rule="evenodd" clip-rule="evenodd" d="M32.4384 29.7388L28.3128 26.7734L25.1579 22.8955C25.0693 22.7866 24.9035 22.7659 24.7877 22.8491C24.6717 22.9324 24.6497 23.0882 24.7383 23.1971L26.7114 25.6223L24.1312 23.7677C24.0151 23.6841 23.8493 23.7054 23.761 23.8141C23.6723 23.923 23.6944 24.0789 23.8103 24.1621L27.936 27.1275L31.0909 31.0054C31.1428 31.0693 31.2214 31.1029 31.3008 31.1029C31.3567 31.1029 31.4132 31.0863 31.4611 31.0518C31.577 30.9685 31.5991 30.8127 31.5105 30.7038L29.5374 28.2786L32.1176 30.1332C32.1654 30.1677 32.2219 30.1843 32.2777 30.1843C32.3573 30.1843 32.4358 30.1507 32.4878 30.0868C32.5764 29.978 32.5543 29.8221 32.4384 29.7388Z" fill="#CD4146"/>
<path fill-rule="evenodd" clip-rule="evenodd" d="M30.5012 26.9506C30.5012 26.6163 30.2653 26.3368 29.9427 26.2426C30.1 25.9616 30.0565 25.6072 29.8051 25.3708C29.5536 25.1344 29.1765 25.0936 28.8775 25.2414C28.7773 24.9381 28.4799 24.7164 28.1243 24.7164C27.7687 24.7164 27.4714 24.9381 27.3712 25.2414C27.0721 25.0936 26.6951 25.1344 26.4436 25.3708C26.1922 25.6071 26.1487 25.9616 26.306 26.2426C25.9833 26.3368 25.7474 26.6163 25.7474 26.9505C25.7474 27.2848 25.9833 27.5643 26.3059 27.6585C26.1487 27.9396 26.1921 28.294 26.4436 28.5303C26.695 28.7667 27.0721 28.8075 27.3711 28.6597C27.4713 28.963 27.7687 29.1847 28.1243 29.1847C28.4799 29.1847 28.7772 28.963 28.8775 28.6597C29.1765 28.8076 29.5535 28.7667 29.805 28.5303C30.0565 28.294 30.0999 27.9396 29.9427 27.6585C30.2653 27.5643 30.5012 27.2848 30.5012 26.9506Z" fill="#91323C"/>
<path fill-rule="evenodd" clip-rule="evenodd" d="M26.5397 26.9505C26.5397 27.7719 27.2505 28.44 28.1243 28.44C28.9981 28.44 29.709 27.7719 29.709 26.9505C29.709 26.1292 28.9982 25.4611 28.1243 25.4611C27.2505 25.4611 26.5397 26.1292 26.5397 26.9505ZM27.068 26.9505C27.068 26.403 27.5419 25.9576 28.1243 25.9576C28.7068 25.9576 29.1807 26.403 29.1807 26.9505C29.1807 27.498 28.7068 27.9435 28.1243 27.9435C27.5419 27.9435 27.068 27.498 27.068 26.9505Z" fill="#AF3A41"/>
<path fill-rule="evenodd" clip-rule="evenodd" d="M72.188 56.9015C71.9935 56.9015 71.8359 56.7529 71.8359 56.5695C71.8359 55.4787 71.3448 53.6311 70.4887 51.5006C69.6744 49.4741 68.6286 47.4422 67.6911 46.0653C67.5861 45.911 67.6335 45.7056 67.7971 45.6066C67.9607 45.5076 68.1786 45.5523 68.2836 45.7066C69.7574 47.8712 71.4652 51.5813 72.188 54.3503C72.9108 51.5813 74.6186 47.8712 76.0925 45.7066C76.1974 45.5523 76.4153 45.5076 76.5789 45.6066C76.7424 45.7056 76.7899 45.911 76.685 46.0653C75.7474 47.4422 74.7016 49.4741 73.8873 51.5006C73.0312 53.6311 72.5401 55.4787 72.5401 56.5695C72.5401 56.7529 72.3825 56.9015 72.188 56.9015Z" fill="#00A3AD"/>
<path fill-rule="evenodd" clip-rule="evenodd" d="M81.8548 38.7033C81.8047 38.7033 81.7536 38.6931 81.705 38.6715C81.5292 38.5934 81.4538 38.3955 81.5366 38.2296L82.3949 36.5126C82.4778 36.3469 82.6876 36.2757 82.8636 36.3539C83.0395 36.4322 83.1148 36.6299 83.0319 36.7958L82.1736 38.5128C82.1135 38.6329 81.9869 38.7033 81.8548 38.7033Z" fill="#FF9216"/>
<path fill-rule="evenodd" clip-rule="evenodd" d="M80.3557 38.0369C80.3055 38.0369 80.2543 38.0267 80.2059 38.0051C80.03 37.9269 79.9547 37.7291 80.0375 37.5633L80.8959 35.8464C80.9789 35.6805 81.1886 35.6093 81.3645 35.6875C81.5404 35.7658 81.6157 35.9635 81.5329 36.1294L80.6745 37.8465C80.6144 37.9665 80.4878 38.0369 80.3557 38.0369Z" fill="#FF9216"/>
<path fill-rule="evenodd" clip-rule="evenodd" d="M78.8567 37.3705C78.8064 37.3705 78.7553 37.3603 78.7067 37.3387C78.5309 37.2605 78.4555 37.0627 78.5385 36.8969L79.3968 35.18C79.4797 35.0141 79.6893 34.9429 79.8653 35.0212C80.0412 35.0994 80.1165 35.2972 80.0336 35.463L79.1753 37.1801C79.1154 37.3001 78.9886 37.3705 78.8567 37.3705V37.3705Z" fill="#FF9216"/>
<path fill-rule="evenodd" clip-rule="evenodd" d="M62.5211 38.7032C62.3891 38.7032 62.2625 38.6328 62.2024 38.5128L61.3441 36.7957C61.2612 36.6299 61.3367 36.4321 61.5126 36.3539C61.6884 36.2758 61.8982 36.3468 61.9811 36.5127L62.8394 38.2296C62.9224 38.3954 62.8468 38.5933 62.671 38.6714C62.6226 38.693 62.5715 38.7032 62.5211 38.7032Z" fill="#FF9216"/>
<path fill-rule="evenodd" clip-rule="evenodd" d="M64.0203 38.0368C63.8882 38.0368 63.7616 37.9664 63.7015 37.8462L62.8433 36.1293C62.7603 35.9635 62.8358 35.7657 63.0115 35.6875C63.1876 35.6094 63.3973 35.6804 63.4803 35.8463L64.3385 37.5632C64.4213 37.729 64.346 37.927 64.1701 38.005C64.1217 38.0266 64.0705 38.0368 64.0203 38.0368Z" fill="#FF9216"/>
<path fill-rule="evenodd" clip-rule="evenodd" d="M65.5192 37.3704C65.3872 37.3704 65.2606 37.3001 65.2007 37.1799L64.3422 35.463C64.2594 35.2971 64.3348 35.0994 64.5106 35.0211C64.6865 34.943 64.8964 35.0139 64.9792 35.1799L65.8375 36.8968C65.9204 37.0627 65.8451 37.2604 65.6692 37.3387C65.6208 37.3602 65.5696 37.3704 65.5192 37.3704Z" fill="#FF9216"/>
<path fill-rule="evenodd" clip-rule="evenodd" d="M65.958 36.4751L65.8848 36.3289L61.6857 38.1954L61.7428 38.3099C62.2812 39.3867 62.491 40.5912 62.2951 41.7673C62.1678 42.5319 62.2828 43.3411 62.6807 44.0897C63.652 45.9176 66.0048 46.714 67.9873 45.886C70.0933 45.0063 71.0083 42.6707 70.0316 40.7171C69.6783 40.0104 69.1266 39.4524 68.4688 39.0736C67.3843 38.449 66.4998 37.5589 65.958 36.4751Z" fill="#FF5D47"/>
<path fill-rule="evenodd" clip-rule="evenodd" d="M68.0766 45.8475C68.0469 45.8607 68.0169 45.8734 67.9869 45.8863C66.005 46.7142 63.652 45.9177 62.6807 44.0898C62.2821 43.3412 62.1678 42.5321 62.2949 41.7674C62.4906 40.5913 62.2807 39.3866 61.7426 38.31L61.6854 38.1957L62.8211 37.6908L62.8783 37.8053C63.4166 38.8818 63.7997 40.0095 63.9508 41.0313C64.0492 41.6957 64.292 42.448 64.6794 43.2013C65.6256 45.0405 67.1134 46.2215 68.0355 45.8647C68.0497 45.859 68.0626 45.8537 68.0766 45.8475Z" fill="#E05955"/>
<path fill-rule="evenodd" clip-rule="evenodd" d="M78.4181 36.4751L78.4912 36.3289L82.6905 38.1954L82.6332 38.3099C82.0949 39.3867 81.885 40.5912 82.0809 41.7673C82.2082 42.5319 82.0933 43.3411 81.6955 44.0897C80.724 45.9176 78.3712 46.714 76.3887 45.886C74.2827 45.0063 73.3679 42.6707 74.3444 40.7171C74.6977 40.0104 75.2494 39.4524 75.9072 39.0736C76.9917 38.449 77.8762 37.5589 78.4181 36.4751Z" fill="#FF5D47"/>
<path fill-rule="evenodd" clip-rule="evenodd" d="M79.4017 36.7336L79.3291 36.88C78.7869 37.9637 78.0588 38.9229 77.248 39.6694C76.7564 40.1221 76.3015 40.7233 75.9481 41.4297C74.989 43.3488 75.142 45.3199 76.2875 45.8419C74.2538 44.9309 73.384 42.6388 74.3444 40.7171C74.6979 40.0106 75.2494 39.4524 75.9072 39.0734C76.9922 38.4488 77.8765 37.5591 78.4183 36.475L78.4915 36.3289L79.4017 36.7336Z" fill="#E05955"/>
<path fill-rule="evenodd" clip-rule="evenodd" d="M40.5128 43.5207C40.5502 43.4698 40.6239 43.4559 40.6789 43.4919C40.6799 43.4919 40.6913 43.5 40.6961 43.5031C40.9938 43.2381 41.2192 42.8885 41.2957 42.4682C41.4378 41.6772 40.676 40.6184 39.7941 39.9376C39.9668 40.7444 39.8764 41.5611 39.15 41.8239C38.3877 42.1002 37.8254 41.3501 37.4665 40.5919C37.4588 41.4941 37.678 42.7135 38.1436 43.455C38.6322 44.2298 39.7496 44.197 40.521 43.6444C40.4937 43.6071 40.4837 43.5603 40.5128 43.5207" fill="#578EA9"/>
<path fill-rule="evenodd" clip-rule="evenodd" d="M39.15 41.8239C39.8764 41.5611 39.9668 40.7444 39.7941 39.9376C38.9964 39.3194 38.1001 39.0148 37.689 39.5048C37.5488 39.6722 37.4722 40.0821 37.4665 40.5919C37.8254 41.3501 38.3877 42.1002 39.15 41.8239" fill="#E05955"/>
<path fill-rule="evenodd" clip-rule="evenodd" d="M43.1701 37.9992C42.7595 37.5744 42.9567 36.7757 43.3022 36.0229C42.8194 36.4563 42.3485 37.075 42.0738 37.871C41.479 39.5903 42.8495 40.8344 44.2664 40.8344C45.681 40.8344 46.7338 38.9891 46.3663 37.6131C46.3026 37.3737 46.2289 37.1465 46.1466 36.9377C45.7963 38.9171 43.9243 38.7808 43.1701 37.9992" fill="#578EA9"/>
<path fill-rule="evenodd" clip-rule="evenodd" d="M43.1702 37.9991C43.9243 38.7807 45.7963 38.9171 46.1466 36.9377C45.7657 35.9509 45.2121 35.3295 44.7216 35.2935C44.4282 35.2732 43.8583 35.523 43.3022 36.0229C42.9567 36.7757 42.7596 37.5744 43.1702 37.9991" fill="#E05955"/>
<path fill-rule="evenodd" clip-rule="evenodd" d="M46.2457 44.3499C46.2682 44.3931 46.2519 44.4385 46.2179 44.4723C46.3012 44.5884 46.395 44.6955 46.5031 44.7873C47.4626 45.6022 49.381 45.5167 50.0663 43.7978C50.1864 43.4914 50.2964 43.2232 50.3893 42.9861C49.5317 44.1285 47.9478 43.6745 47.7832 42.6387C47.599 41.4787 48.7422 41.1358 48.7422 41.1358L48.7752 41.1178C48.2684 41.1925 47.7061 41.3239 47.1443 41.5228C45.8112 41.988 45.591 43.3753 46.1083 44.2982C46.1629 44.2856 46.2198 44.3018 46.2457 44.3499" fill="#578EA9"/>
<path fill-rule="evenodd" clip-rule="evenodd" d="M47.7832 42.6387C47.9478 43.6746 49.5318 44.1286 50.3893 42.9861C50.8171 41.8909 50.9238 41.4679 50.6611 41.2213C50.4525 41.0279 49.7098 40.9761 48.7752 41.1179L48.7422 41.1359C48.7422 41.1359 47.599 41.4787 47.7832 42.6387" fill="#E05955"/>
<path fill-rule="evenodd" clip-rule="evenodd" d="M44.0152 47.0259C43.9951 47.0394 43.9712 47.0471 43.9458 47.0471C43.9334 47.0471 43.921 47.0453 43.908 47.0412C43.8454 47.0214 43.8119 46.958 43.8324 46.899C43.9009 46.706 43.9808 46.5283 44.066 46.3591L44.4765 40.9725C44.4813 40.91 44.4316 40.8564 44.3655 40.8519C44.3019 40.8452 44.243 40.8938 44.2378 40.9559L43.6965 48.059C43.7836 48.487 43.832 48.9437 43.8324 49.4287L44.0152 47.0259" fill="#00A3AD"/>
<path d="M44.0152 47.0259C43.9951 47.0394 43.9712 47.0471 43.9458 47.0471C43.9334 47.0471 43.921 47.0453 43.908 47.0412C43.8454 47.0214 43.8119 46.958 43.8324 46.899C43.9009 46.706 43.9808 46.5283 44.066 46.3591L44.4765 40.9725C44.4813 40.91 44.4316 40.8564 44.3655 40.8519C44.3019 40.8452 44.243 40.8938 44.2378 40.9559L43.6965 48.059C43.7836 48.487 43.832 48.9437 43.8324 49.4287L44.0152 47.0259" stroke="#00A3AD" stroke-width="1.35168"/>
<path fill-rule="evenodd" clip-rule="evenodd" d="M43.8157 49.6465C43.8243 49.6317 43.8367 49.6182 43.8372 49.6002C43.8386 49.5412 43.8324 49.4868 43.8324 49.4288C43.8319 48.9437 43.7836 48.487 43.6965 48.0591C43.1103 45.1766 40.8559 43.6103 40.6961 43.5032C40.6913 43.5 40.6798 43.4919 40.6789 43.4919C40.6238 43.4559 40.5501 43.4699 40.5128 43.5207C40.4836 43.5603 40.4937 43.6071 40.521 43.6445C40.5291 43.6553 40.531 43.6692 40.5434 43.6773C40.575 43.6976 43.5836 45.6936 43.5931 49.4198C43.5931 49.4792 43.5994 49.5345 43.5979 49.5948C43.597 49.6573 43.6491 49.7086 43.7152 49.71C43.7635 49.71 43.7956 49.6821 43.8157 49.6465Z" fill="#00A3AD" stroke="#00A3AD" stroke-width="1.35168"/>
<path fill-rule="evenodd" clip-rule="evenodd" d="M43.908 47.0412C43.9209 47.0452 43.9334 47.047 43.9458 47.047C43.9712 47.047 43.9951 47.0394 44.0152 47.0259C44.0353 47.0128 44.0511 46.9935 44.0597 46.9701C44.6746 45.235 46.1772 44.5079 46.1921 44.5011C46.205 44.4948 46.2088 44.4818 46.2179 44.4723C46.2519 44.4386 46.2681 44.3931 46.2457 44.3499C46.2198 44.3018 46.1629 44.2856 46.1083 44.2982C46.1007 44.3 46.0925 44.2964 46.0849 44.2995C46.0265 44.327 44.7904 44.9259 44.0659 46.359C43.9808 46.5282 43.9008 46.7059 43.8324 46.899C43.8118 46.9579 43.8453 47.0214 43.908 47.0412" fill="#00A3AD"/>
<path d="M43.908 47.0412C43.9209 47.0452 43.9334 47.047 43.9458 47.047C43.9712 47.047 43.9951 47.0394 44.0152 47.0259C44.0353 47.0128 44.0511 46.9935 44.0597 46.9701C44.6746 45.235 46.1772 44.5079 46.1921 44.5011C46.205 44.4948 46.2088 44.4818 46.2179 44.4723C46.2519 44.4386 46.2681 44.3931 46.2457 44.3499C46.2198 44.3018 46.1629 44.2856 46.1083 44.2982C46.1007 44.3 46.0925 44.2964 46.0849 44.2995C46.0265 44.327 44.7904 44.9259 44.0659 46.359C43.9808 46.5282 43.9008 46.7059 43.8324 46.899C43.8118 46.9579 43.8453 47.0214 43.908 47.0412" stroke="#00A3AD" stroke-width="1.35168"/>
<path fill-rule="evenodd" clip-rule="evenodd" d="M43.4271 51.5989C43.463 51.5904 43.4994 51.5836 43.5348 51.5733C43.5348 51.5733 43.5027 51.499 43.4444 51.3744C43.0563 50.546 41.4742 47.4394 39.9262 48.2228C37.8714 49.2636 41.0182 52.1713 43.4271 51.5989" fill="#00A3AD"/>
<path fill-rule="evenodd" clip-rule="evenodd" d="M43.7272 50.811C44.3019 50.8493 46.4467 50.9681 47.2348 50.6716C48.1488 50.3278 48.1943 48.6958 46.6869 48.5239C45.4686 48.3853 44.1914 49.957 43.7458 50.5654C43.6401 50.7098 43.5807 50.8007 43.5807 50.8007C43.5807 50.8007 43.6358 50.8047 43.7272 50.811" fill="#00A3AD"/>
<path fill-rule="evenodd" clip-rule="evenodd" d="M8.34664 42.8968C8.34664 42.8968 8.51127 39.4965 5.03233 38.2835C4.91132 38.2415 4.77778 38.31 4.74736 38.4307C4.52972 39.2956 4.04477 42.4414 8.34664 42.8968V42.8968Z" fill="#67C1B0"/>
<path d="M8.27689 34.4664C8.27689 34.4664 8.92949 38.1283 8.71195 41.3067C8.49442 44.4852 7.32538 46.8814 7.32538 46.8814" stroke="#00A3AD" stroke-width="2" stroke-linecap="round"/>
<path fill-rule="evenodd" clip-rule="evenodd" d="M10.777 43.1322C10.4565 43.9887 9.67001 44.6309 8.71198 44.7744C8.9115 46.6023 10.8126 48.191 12.0243 47.517C13.3937 46.7555 12.5739 43.9428 10.777 43.1322Z" fill="#FDBD40"/>
<path fill-rule="evenodd" clip-rule="evenodd" d="M6.66638 30.2958C5.54058 28.8168 3.07985 28.3619 2.38218 29.5261C1.5984 30.8341 3.73479 32.8734 5.71998 32.7243C5.5426 31.7738 5.93471 30.8591 6.66638 30.2958Z" fill="#FDBD40"/>
<path fill-rule="evenodd" clip-rule="evenodd" d="M9.60735 30.076C10.6188 28.4293 9.80441 25.8285 8.31066 25.8285C6.81176 25.8285 6.00986 28.4328 7.01106 30.0711C7.80805 29.6358 8.7956 29.6287 9.60735 30.076Z" fill="#FDBD40"/>
<path fill-rule="evenodd" clip-rule="evenodd" d="M14.2541 39.5261C13.552 38.3543 11.0765 38.8256 9.96033 40.3087C10.6994 40.8873 11.0611 41.8025 10.8902 42.7221C12.8924 42.8943 15.0375 40.833 14.2541 39.5261Z" fill="#FDBD40"/>
<path fill-rule="evenodd" clip-rule="evenodd" d="M5.8343 33.1367C4.01598 33.967 3.25076 36.7684 4.59711 37.517C5.81394 38.1938 7.70943 36.5945 7.90918 34.7761C6.94779 34.6362 6.1573 33.9945 5.8343 33.1367Z" fill="#FDBD40"/>
<path fill-rule="evenodd" clip-rule="evenodd" d="M8.30486 29.6858C6.82363 29.6858 5.61865 30.8468 5.61865 32.2737C5.61865 33.7006 6.82363 34.8616 8.30486 34.8616C9.78608 34.8616 10.9913 33.7006 10.9913 32.2737C10.9913 30.8468 9.78608 29.6858 8.30486 29.6858Z" fill="#CE2526"/>
<path d="M180.134 29.0594C180.134 29.0594 177.149 58.2252 185.423 65.8303" stroke="#0C7076" stroke-width="2" stroke-linecap="round" stroke-linejoin="round"/>
<path fill-rule="evenodd" clip-rule="evenodd" d="M178.877 38.7511C178.877 38.7511 182.655 31.2396 191.893 32.504C192.214 32.5482 192.428 32.8448 192.349 33.1385C191.779 35.2456 189.026 42.5659 178.877 38.7511V38.7511Z" fill="#0C7076"/>
<path fill-rule="evenodd" clip-rule="evenodd" d="M179.348 23.2737C177.244 20.7427 174.249 19.2886 172.66 20.026C171.071 20.7633 171.489 23.4128 173.594 25.9439C175.698 28.4749 178.693 29.929 180.282 29.1916C181.871 28.4543 181.453 25.8047 179.348 23.2737Z" fill="#F16730"/>
<path fill-rule="evenodd" clip-rule="evenodd" d="M187.189 19.89C185.7 19.1771 182.824 20.6536 180.827 23.1847C180.526 23.5618 180.252 23.9519 180.009 24.3532C181.296 26.4625 181.411 28.4536 180.15 29.0568L180.009 29.1159C181.547 29.6812 184.276 28.2216 186.229 25.7664C188.253 23.2311 188.684 20.603 187.189 19.89V19.89Z" fill="#EF4C23"/>
<path fill-rule="evenodd" clip-rule="evenodd" d="M180.009 17.8356C181.324 17.8356 182.453 19.1939 182.933 21.1302C182.126 21.7461 181.418 22.4361 180.827 23.1846C180.526 23.5618 180.252 23.9519 180.009 24.3532C179.765 23.9519 179.492 23.5618 179.19 23.1846C178.599 22.4361 177.892 21.7461 177.084 21.1302C177.564 19.1939 178.694 17.8356 180.009 17.8356ZM180.963 28.0443C180.963 28.086 180.953 28.1277 180.931 28.1693L180.963 28.0443ZM180.925 28.1667C180.894 28.2617 180.854 28.3547 180.805 28.4451C180.854 28.3547 180.894 28.2617 180.925 28.1667Z" fill="#CE2526"/>
<path fill-rule="evenodd" clip-rule="evenodd" d="M212.823 29.1219C211.978 32.9334 204.312 40.5296 199.722 35.5204C198.322 28.9534 209.17 27.5073 212.823 29.1219V29.1219Z" fill="#67C1B0"/>
<path fill-rule="evenodd" clip-rule="evenodd" d="M196.946 36.9994C196.751 36.7847 196.775 36.4588 196.999 36.2719C197.213 36.0924 202.319 31.8621 208.665 30.2001C208.951 30.1253 209.246 30.2874 209.324 30.5621C209.402 30.8368 209.233 31.1203 208.947 31.1951C202.836 32.7955 197.755 37.0069 197.704 37.0492C197.602 37.1344 197.476 37.1762 197.351 37.1762C197.202 37.1762 197.052 37.1162 196.946 36.9994Z" fill="#00A3AD"/>
<path fill-rule="evenodd" clip-rule="evenodd" d="M208.019 12.8355C207.945 12.846 207.867 12.8413 207.79 12.819C207.512 12.7385 207.358 12.4567 207.446 12.1901L208.36 9.42969C208.449 9.16332 208.746 9.01241 209.024 9.0932C209.302 9.17402 209.456 9.45554 209.368 9.72216L208.453 12.4826C208.389 12.6756 208.216 12.8078 208.019 12.8355Z" fill="#FF9216"/>
<path fill-rule="evenodd" clip-rule="evenodd" d="M205.648 12.1473C205.573 12.1578 205.495 12.1532 205.418 12.1309C205.14 12.0501 204.986 11.7686 205.074 11.502L205.989 8.74179C206.077 8.47517 206.375 8.32426 206.653 8.40508C206.931 8.48591 207.085 8.76742 206.997 9.03401L206.082 11.7945C206.018 11.9875 205.845 12.1197 205.648 12.1473Z" fill="#FF9216"/>
<path fill-rule="evenodd" clip-rule="evenodd" d="M203.277 11.4592C203.202 11.4697 203.124 11.4651 203.047 11.4428C202.769 11.362 202.615 11.0805 202.703 10.8139L203.618 8.05369C203.706 7.78707 204.003 7.6362 204.281 7.71699C204.559 7.79781 204.713 8.07932 204.625 8.34595L203.711 11.1064C203.647 11.2993 203.473 11.4316 203.277 11.4592V11.4592Z" fill="#FF9216"/>
<path fill-rule="evenodd" clip-rule="evenodd" d="M202.435 10.205L202.513 9.96987L209.155 11.8973L209.094 12.0814C208.521 13.8125 208.463 15.6669 209.003 17.3937C209.354 18.5165 209.354 19.7567 208.92 20.9652C207.861 23.9159 204.528 25.605 201.403 24.775C198.084 23.8931 196.229 20.5737 197.27 17.433C197.646 16.2969 198.349 15.3428 199.248 14.6358C200.73 13.4702 201.858 11.9474 202.435 10.205Z" fill="#FF694F"/>
<path fill-rule="evenodd" clip-rule="evenodd" d="M203.953 10.3879L203.876 10.6232C203.298 12.3654 202.417 13.9595 201.369 15.251C200.733 16.0343 200.183 17.0331 199.806 18.1689C198.785 21.254 199.429 24.1849 201.243 24.7299C198.025 23.7859 196.247 20.5224 197.27 17.433C197.646 16.2972 198.349 15.3428 199.248 14.6356C200.73 13.4699 201.858 11.9476 202.435 10.2048L202.513 9.96983L203.953 10.3879Z" fill="#E05955"/>
<path d="M201.036 24.8569C201.036 24.8569 193.277 44.7035 197.99 65.5774" stroke="#00A3AD" stroke-width="2" stroke-linecap="round" stroke-linejoin="round"/>
<path fill-rule="evenodd" clip-rule="evenodd" d="M345.585 20.8582C346.56 20.089 347.429 21.558 347.901 22.3644C348.371 23.1673 349.494 22.9572 349.708 21.7315C349.929 20.5078 350.397 20.0181 350.759 20.2644C351.121 20.5078 351.376 21.452 351.81 20.8914C352.245 20.3324 352.497 19.3892 353.293 19.7054C353.988 19.979 354.353 20.6261 354.509 21.2536C354.506 21.2585 354.509 21.2609 354.512 21.2668C354.63 22.185 354.599 23.1136 354.271 23.8666C353.86 24.8157 352.887 25.4818 351.758 25.9045C351.845 25.8571 351.935 25.8063 352.025 25.7569C354.379 24.4272 352.858 23.2035 352.245 23.5871C351.628 23.9707 351.41 23.6233 351.049 23.2714C350.687 22.9239 350.397 23.5509 350.073 24.6036C349.746 25.6499 348.55 25.3367 348.116 24.9169C347.681 24.4966 346.271 23.7973 345.909 24.7766C345.548 25.7569 347.14 26.2461 347.14 26.2461L347.122 26.2999C345.935 25.9275 345.122 24.7575 344.806 23.3217V23.3188C344.789 22.7309 344.844 21.4407 345.585 20.8582" fill="#395E6E"/>
<path fill-rule="evenodd" clip-rule="evenodd" d="M345.909 24.7765C346.271 23.7972 347.681 24.4965 348.116 24.9168C348.55 25.3366 349.746 25.6498 350.073 24.6035C350.397 23.5509 350.687 22.9239 351.048 23.2713C351.41 23.6232 351.628 23.9707 352.245 23.587C352.858 23.2034 354.379 24.4271 352.025 25.7569C351.935 25.8062 351.845 25.8571 351.758 25.9045C351.159 26.1283 350.516 26.2793 349.887 26.3697C349.849 26.2998 349.823 26.2602 349.814 26.248C349.775 26.1928 349.698 26.1767 349.639 26.2148C349.581 26.2519 349.566 26.3282 349.605 26.3849C349.605 26.3858 349.611 26.3941 349.617 26.4054C348.819 26.4982 348.059 26.4899 347.467 26.3868C347.348 26.3668 347.233 26.336 347.122 26.2998L347.14 26.2461C347.14 26.2461 345.548 25.7569 345.909 24.7765" fill="#00A3AD"/>
<path fill-rule="evenodd" clip-rule="evenodd" d="M354.509 21.2535C354.353 20.626 353.988 19.979 353.293 19.7053C352.497 19.3891 352.245 20.3323 351.81 20.8914C351.376 21.452 351.121 20.5078 350.759 20.2644C350.397 20.0181 349.929 20.5078 349.708 21.7315C349.494 22.9571 348.371 23.1673 347.901 22.3644C347.429 21.558 346.56 20.089 345.585 20.8582C344.844 21.4407 344.789 22.7309 344.806 23.3188C344.65 22.6107 344.615 21.8405 344.716 21.0683C345.041 18.5857 346.126 17.253 346.958 16.9056C347.791 16.5537 348.225 17.5692 348.55 17.989C348.877 18.4088 349.419 18.1992 349.529 17.7789C349.529 17.7789 349.638 17.1499 350.108 17.0458C350.577 16.9403 351.121 17.7456 351.521 17.4295C351.917 17.1138 352.424 16.694 353.075 17.3933C353.498 17.8497 354.274 19.5343 354.509 21.2535" fill="#E05955"/>
<path fill-rule="evenodd" clip-rule="evenodd" d="M349.408 15.307C349.022 15.1902 348.756 14.1874 349.408 13.7442C349.771 13.4974 350.422 13.8844 350.494 14.5603C350.566 15.2371 349.794 15.4238 349.408 15.307" fill="#E05955"/>
<path fill-rule="evenodd" clip-rule="evenodd" d="M348.805 16.7995C348.395 16.9402 347.864 16.5903 348.105 15.7268C348.19 15.4238 348.829 15.4702 349.046 15.8206C349.263 16.1701 349.215 16.6597 348.805 16.7995" fill="#E05955"/>
<path fill-rule="evenodd" clip-rule="evenodd" d="M351.242 15.9135C350.735 15.7737 350.639 14.9576 351.314 14.7474C351.729 14.6189 352.111 14.9336 352.111 15.4003C352.111 15.867 351.748 16.0532 351.242 15.9135" fill="#E05955"/>
<path fill-rule="evenodd" clip-rule="evenodd" d="M350.967 43.5327C350.89 43.7471 350.807 43.8965 350.72 44.0094C350.398 44.4297 350.023 44.2092 349.673 43.6885C349.228 43.0277 348.5 40.4614 348.095 39.3733C347.69 38.2851 346.274 36.3021 347.084 35.8351C347.893 35.3697 349.066 36.7305 350.037 39.2174C350.591 40.6357 350.815 41.8379 350.905 42.6106C350.974 43.1933 350.967 43.5327 350.967 43.5327" fill="#00A3AD"/>
<path fill-rule="evenodd" clip-rule="evenodd" d="M350.741 39.6326C350.755 39.6185 350.764 39.6103 350.764 39.6103C350.764 39.6103 351.533 35.4889 352.706 34.1673C353.879 32.8461 355.133 33.507 354.89 34.751C354.647 35.995 352.868 38.0161 352.544 39.3377C352.221 40.6588 350.885 42.0592 350.602 41.0091C350.594 40.977 350.592 40.9521 350.584 40.9217C350.384 40.0838 350.658 39.7184 350.741 39.6326" fill="#00A3AD"/>
<path d="M349.331 23.9888C349.331 23.9888 351.103 35.8346 350.957 44.5346C350.81 53.2346 349.331 58.0663 349.331 58.0663" stroke="#00A3AD" stroke-width="2.06186" stroke-linecap="round"/>
<path d="M277.538 30.827C277.538 30.827 274.644 37.5908 274.93 43.7246C275.216 49.8584 276.918 57.9231 276.918 57.9231" stroke="#00A3AD" stroke-width="2" stroke-linecap="round"/>
<path fill-rule="evenodd" clip-rule="evenodd" d="M281.494 29.101C280.818 30.3059 279.505 31.0814 278.056 31.0718C277.918 33.8499 280.35 36.6686 282.299 35.9449C284.501 35.1273 283.956 30.7326 281.494 29.101Z" fill="#FDBD40"/>
<path fill-rule="evenodd" clip-rule="evenodd" d="M276.094 23.9011C274.782 21.4277 271.255 20.1723 269.949 21.7488C268.482 23.5199 271.155 27.067 274.122 27.3085C274.085 25.8468 274.88 24.5717 276.094 23.9011Z" fill="#FDBD40"/>
<path fill-rule="evenodd" clip-rule="evenodd" d="M280.49 24.2607C282.374 22.0367 281.786 17.9598 279.58 17.6103C277.366 17.2597 275.566 20.9636 276.657 23.6459C277.937 23.1819 279.397 23.4023 280.49 24.2607Z" fill="#FDBD40"/>
<path fill-rule="evenodd" clip-rule="evenodd" d="M287.483 24.526C286.724 22.6108 282.956 22.7359 280.956 24.691C281.911 25.7284 282.229 27.1805 281.759 28.5148C284.675 29.2404 288.331 26.6621 287.483 24.526Z" fill="#FDBD40"/>
<path fill-rule="evenodd" clip-rule="evenodd" d="M274.193 27.9515C271.311 28.7668 269.518 32.7739 271.329 34.2074C272.966 35.5034 276.144 33.5571 276.87 30.8866C275.483 30.4527 274.467 29.3089 274.193 27.9515Z" fill="#FDBD40"/>
<path fill-rule="evenodd" clip-rule="evenodd" d="M278.659 23.3729C276.471 23.0264 274.417 24.4794 274.079 26.6116C273.741 28.7438 275.246 30.7605 277.434 31.107C279.621 31.4535 281.676 30.0006 282.014 27.8684C282.352 25.7362 280.846 23.7194 278.659 23.3729Z" fill="#CE2526"/>
<path d="M123.996 29.8911C123.996 29.8911 131.391 51.9578 126.778 65.3789" stroke="#00A3AD" stroke-width="2" stroke-linecap="round" stroke-linejoin="round"/>
<path fill-rule="evenodd" clip-rule="evenodd" d="M127.276 38.3663C127.14 41.3576 121.889 42.1272 118.55 39.6087C115.211 37.0902 111.873 36.1339 111.873 36.1339C111.873 36.1339 118.075 31.7743 121.713 32.4909C125.35 33.2076 127.412 35.375 127.276 38.3663Z" fill="#00A3AD"/>
<path fill-rule="evenodd" clip-rule="evenodd" d="M121.636 30.7154V30.7154C122.959 30.7154 124.032 29.7015 124.032 28.4508V22.5062H117.742C116.419 22.5062 115.346 23.5201 115.346 24.7708V24.7708C115.346 28.0539 118.162 30.7154 121.636 30.7154Z" fill="#FF5A5A"/>
<path fill-rule="evenodd" clip-rule="evenodd" d="M126.428 30.7154V30.7154C125.104 30.7154 124.032 29.7015 124.032 28.4508V22.5062H130.321C131.645 22.5062 132.717 23.5201 132.717 24.7708V24.7708C132.717 28.0539 129.901 30.7154 126.428 30.7154Z" fill="#FF464B"/>
<path fill-rule="evenodd" clip-rule="evenodd" d="M126.428 14.297V14.297C125.104 14.297 124.032 15.3109 124.032 16.5616V22.5062H130.321C131.645 22.5062 132.717 21.4923 132.717 20.2416V20.2416C132.717 16.9585 129.901 14.297 126.428 14.297Z" fill="#FF5A5A"/>
<path fill-rule="evenodd" clip-rule="evenodd" d="M121.636 14.297V14.297C122.959 14.297 124.032 15.3109 124.032 16.5616V22.5062H117.742C116.419 22.5062 115.346 21.4923 115.346 20.2416V20.2416C115.346 16.9585 118.162 14.297 121.636 14.297Z" fill="#FF464B"/>
<path fill-rule="evenodd" clip-rule="evenodd" d="M124.032 19.1093C122.047 19.1093 120.438 20.6301 120.438 22.5062H124.032V19.1093Z" fill="#FF8C4E"/>
<path fill-rule="evenodd" clip-rule="evenodd" d="M127.626 22.5062C127.626 20.6301 126.017 19.1093 124.032 19.1093V22.5062H127.626Z" fill="#FFA555"/>
<path fill-rule="evenodd" clip-rule="evenodd" d="M124.032 25.9031C126.017 25.9031 127.626 24.3823 127.626 22.5062H124.032V25.9031Z" fill="#FF8C4E"/>
<path fill-rule="evenodd" clip-rule="evenodd" d="M120.438 22.5062C120.438 24.3823 122.047 25.9031 124.032 25.9031V22.5062H120.438Z" fill="#FFA555"/>
<path fill-rule="evenodd" clip-rule="evenodd" d="M128.98 18.9297C128.88 18.8058 128.692 18.7814 128.56 18.8768L125.634 20.9916L127.872 18.2261C127.972 18.102 127.947 17.9242 127.816 17.8293C127.685 17.7344 127.497 17.7581 127.396 17.8822L123.818 22.3043L119.139 25.6858C119.008 25.7808 118.983 25.9585 119.083 26.0826C119.142 26.1555 119.231 26.1938 119.321 26.1938C119.385 26.1938 119.449 26.1748 119.503 26.1356L122.429 24.0207L120.192 26.7863C120.091 26.9104 120.116 27.0882 120.248 27.1831C120.302 27.2224 120.366 27.2413 120.429 27.2413C120.519 27.2413 120.609 27.203 120.667 27.1302L124.245 22.7081L128.924 19.3265C129.056 19.2316 129.081 19.0539 128.98 18.9297Z" fill="#D7464B"/>
<path fill-rule="evenodd" clip-rule="evenodd" d="M128.924 25.6857L124.245 22.3042L120.668 17.8821C120.567 17.7579 120.379 17.7343 120.248 17.8291C120.116 17.9241 120.091 18.1018 120.192 18.226L122.429 20.9915L119.503 18.8767C119.372 18.7813 119.183 18.8056 119.083 18.9296C118.983 19.0537 119.008 19.2315 119.139 19.3264L123.818 22.708L127.396 27.1301C127.455 27.2029 127.544 27.2412 127.634 27.2412C127.697 27.2412 127.761 27.2223 127.816 27.183C127.947 27.088 127.972 26.9103 127.872 26.7862L125.634 24.0207L128.56 26.1355C128.614 26.1748 128.678 26.1937 128.742 26.1937C128.832 26.1937 128.921 26.1554 128.98 26.0826C129.081 25.9584 129.055 25.7807 128.924 25.6857Z" fill="#CD4146"/>
<path fill-rule="evenodd" clip-rule="evenodd" d="M126.727 22.5062C126.727 22.125 126.46 21.8063 126.094 21.6989C126.272 21.3784 126.223 20.9742 125.938 20.7047C125.653 20.4352 125.225 20.3886 124.886 20.5572C124.772 20.2113 124.435 19.9585 124.032 19.9585C123.628 19.9585 123.291 20.2113 123.178 20.5572C122.838 20.3885 122.411 20.4351 122.126 20.7047C121.841 20.9742 121.791 21.3784 121.97 21.6988C121.604 21.8063 121.336 22.125 121.336 22.5061C121.336 22.8873 121.604 23.206 121.97 23.3134C121.791 23.6339 121.84 24.0381 122.126 24.3076C122.411 24.5771 122.838 24.6237 123.177 24.4551C123.291 24.801 123.628 25.0538 124.032 25.0538C124.435 25.0538 124.772 24.801 124.886 24.4551C125.225 24.6237 125.653 24.5772 125.938 24.3076C126.223 24.0381 126.272 23.634 126.094 23.3135C126.46 23.206 126.727 22.8873 126.727 22.5062Z" fill="#91323C"/>
<path fill-rule="evenodd" clip-rule="evenodd" d="M122.235 22.5062C122.235 23.4428 123.041 24.2047 124.032 24.2047C125.023 24.2047 125.829 23.4428 125.829 22.5062C125.829 21.5696 125.023 20.8077 124.032 20.8077C123.041 20.8077 122.235 21.5696 122.235 22.5062ZM122.834 22.5062C122.834 21.8819 123.371 21.3739 124.032 21.3739C124.692 21.3739 125.23 21.8819 125.23 22.5062C125.23 23.1306 124.692 23.6385 124.032 23.6385C123.371 23.6385 122.834 23.1306 122.834 22.5062Z" fill="#AF3A41"/>
<path d="M206.961 43.7988C206.961 43.7988 205.508 52.5568 208.701 57.1531" stroke="#0C7076" stroke-width="2" stroke-linecap="round" stroke-linejoin="round"/>
<path fill-rule="evenodd" clip-rule="evenodd" d="M206.366 48.6067C206.366 48.6067 207.011 44.46 211.525 43.7686C211.683 43.7445 211.827 43.8573 211.834 44.0097C211.882 45.1039 211.688 49.0145 206.366 48.6067V48.6067Z" fill="#0C7076"/>
<path fill-rule="evenodd" clip-rule="evenodd" d="M206.408 50.4426C206.408 50.4426 205.444 47.3429 201.948 47.2639C201.826 47.2612 201.73 47.3616 201.742 47.4786C201.831 48.3183 202.426 51.2826 206.408 50.4426V50.4426Z" fill="#0C7076"/>
<path fill-rule="evenodd" clip-rule="evenodd" d="M206.612 40.4513C205.589 38.8656 204.148 37.9418 203.393 38.3878C202.637 38.8338 202.854 40.4807 203.877 42.0663C204.9 43.652 206.341 44.5758 207.096 44.1298C207.851 43.6838 207.634 42.0369 206.612 40.4513Z" fill="#F16730"/>
<path fill-rule="evenodd" clip-rule="evenodd" d="M210.658 38.3871C209.904 37.9406 208.449 38.8653 207.439 40.4504C207.286 40.6866 207.148 40.9309 207.025 41.1822C207.676 42.5032 207.734 43.7501 207.097 44.1279L207.025 44.1649C207.803 44.5189 209.184 43.6048 210.172 42.0673C211.197 40.4795 211.415 38.8336 210.658 38.3871V38.3871Z" fill="#EF4C23"/>
<path fill-rule="evenodd" clip-rule="evenodd" d="M207.025 37.1005C207.69 37.1005 208.262 37.9512 208.505 39.1638C208.096 39.5495 207.738 39.9816 207.439 40.4504C207.286 40.6866 207.148 40.9309 207.025 41.1822C206.902 40.9309 206.763 40.6866 206.611 40.4504C206.312 39.9816 205.954 39.5495 205.545 39.1638C205.788 37.9512 206.359 37.1005 207.025 37.1005ZM207.547 43.4938C207.547 43.5355 207.536 43.5772 207.515 43.6188L207.547 43.4938ZM207.547 43.5705C207.518 43.63 207.479 43.6882 207.432 43.7448C207.479 43.6882 207.517 43.63 207.547 43.5705Z" fill="#CE2526"/>
<path fill-rule="evenodd" clip-rule="evenodd" d="M161.975 57.227C161.793 57.227 161.646 57.0876 161.646 56.9155C161.646 55.892 161.186 54.1584 160.384 52.1595C159.621 50.2581 158.642 48.3516 157.764 47.0598C157.666 46.915 157.71 46.7222 157.863 46.6293C158.017 46.5365 158.221 46.5784 158.319 46.7231C159.699 48.7541 161.299 52.2352 161.975 54.8332C162.652 52.2352 164.252 48.7541 165.632 46.7231C165.73 46.5784 165.934 46.5365 166.088 46.6293C166.241 46.7222 166.285 46.915 166.187 47.0598C165.309 48.3516 164.329 50.2581 163.567 52.1595C162.765 54.1584 162.305 55.892 162.305 56.9155C162.305 57.0876 162.158 57.227 161.975 57.227Z" fill="#00A3AD"/>
<path fill-rule="evenodd" clip-rule="evenodd" d="M171.028 40.1522C170.982 40.1522 170.934 40.1426 170.888 40.1224C170.723 40.0492 170.653 39.8634 170.73 39.7078L171.534 38.0968C171.612 37.9413 171.808 37.8745 171.973 37.9479C172.138 38.0213 172.208 38.2069 172.131 38.3625L171.327 39.9736C171.271 40.0862 171.152 40.1522 171.028 40.1522Z" fill="#FF9216"/>
<path fill-rule="evenodd" clip-rule="evenodd" d="M169.624 39.527C169.578 39.527 169.53 39.5174 169.484 39.4972C169.319 39.4238 169.249 39.2382 169.326 39.0826L170.13 37.4717C170.208 37.3161 170.405 37.2493 170.569 37.3227C170.734 37.3961 170.804 37.5816 170.727 37.7372L169.923 39.3483C169.867 39.4609 169.748 39.527 169.624 39.527Z" fill="#FF9216"/>
<path fill-rule="evenodd" clip-rule="evenodd" d="M168.221 38.9017C168.174 38.9017 168.126 38.8922 168.08 38.8719C167.916 38.7985 167.845 38.6129 167.923 38.4573L168.726 36.8464C168.804 36.6908 169 36.624 169.165 36.6974C169.33 36.7708 169.401 36.9564 169.323 37.112L168.519 38.7231C168.463 38.8357 168.344 38.9017 168.221 38.9017V38.9017Z" fill="#FF9216"/>
<path fill-rule="evenodd" clip-rule="evenodd" d="M152.922 40.1521C152.799 40.1521 152.68 40.0861 152.624 39.9735L151.82 38.3624C151.742 38.2068 151.813 38.0212 151.978 37.9478C152.143 37.8746 152.339 37.9413 152.417 38.0969L153.22 39.7078C153.298 39.8634 153.227 40.0491 153.063 40.1223C153.017 40.1426 152.97 40.1521 152.922 40.1521Z" fill="#FF9216"/>
<path fill-rule="evenodd" clip-rule="evenodd" d="M154.326 39.5269C154.203 39.5269 154.084 39.4609 154.028 39.3481L153.224 37.7372C153.146 37.5816 153.217 37.396 153.382 37.3226C153.547 37.2493 153.743 37.316 153.821 37.4716L154.624 39.0825C154.702 39.2381 154.631 39.4238 154.467 39.4971C154.421 39.5173 154.373 39.5269 154.326 39.5269Z" fill="#FF9216"/>
<path fill-rule="evenodd" clip-rule="evenodd" d="M155.73 38.9017C155.606 38.9017 155.488 38.8356 155.432 38.7229L154.628 37.1119C154.55 36.9563 154.621 36.7708 154.786 36.6974C154.95 36.6241 155.147 36.6906 155.224 36.8464L156.028 38.4573C156.106 38.6129 156.035 38.7985 155.871 38.8719C155.825 38.8921 155.777 38.9017 155.73 38.9017Z" fill="#FF9216"/>
<path fill-rule="evenodd" clip-rule="evenodd" d="M156.141 38.0616L156.073 37.9243L152.14 39.6756L152.194 39.7831C152.698 40.7934 152.894 41.9235 152.711 43.027C152.592 43.7445 152.699 44.5036 153.072 45.206C153.982 46.9211 156.185 47.6684 158.041 46.8915C160.014 46.0661 160.871 43.8747 159.956 42.0416C159.625 41.3786 159.108 40.855 158.492 40.4996C157.477 39.9136 156.648 39.0785 156.141 38.0616Z" fill="#FF694F"/>
<path fill-rule="evenodd" clip-rule="evenodd" d="M158.125 46.8554C158.097 46.8678 158.069 46.8797 158.041 46.8918C156.185 47.6686 153.981 46.9213 153.072 45.2063C152.699 44.5038 152.591 43.7447 152.711 43.0272C152.894 41.9237 152.697 40.7934 152.193 39.7833L152.14 39.676L153.203 39.2023L153.257 39.3097C153.761 40.3197 154.12 41.3779 154.261 42.3366C154.353 42.9599 154.581 43.6658 154.944 44.3726C155.83 46.0983 157.223 47.2063 158.087 46.8716C158.1 46.8663 158.112 46.8612 158.125 46.8554Z" fill="#E05955"/>
<path fill-rule="evenodd" clip-rule="evenodd" d="M167.81 38.0616L167.878 37.9243L171.811 39.6756L171.757 39.7831C171.253 40.7934 171.057 41.9235 171.24 43.027C171.359 43.7445 171.252 44.5036 170.879 45.206C169.969 46.9211 167.766 47.6684 165.909 46.8915C163.937 46.0661 163.08 43.8747 163.995 42.0416C164.326 41.3786 164.842 40.855 165.458 40.4996C166.474 39.9136 167.302 39.0785 167.81 38.0616Z" fill="#FF694F"/>
<path fill-rule="evenodd" clip-rule="evenodd" d="M168.731 38.3041L168.663 38.4415C168.155 39.4582 167.473 40.3583 166.714 41.0586C166.254 41.4834 165.828 42.0474 165.497 42.7103C164.599 44.5109 164.742 46.3604 165.815 46.8501C163.91 45.9953 163.095 43.8447 163.995 42.0416C164.326 41.3788 164.842 40.855 165.458 40.4994C166.475 39.9134 167.303 39.0786 167.81 38.0614L167.879 37.9243L168.731 38.3041Z" fill="#E05955"/>
<path fill-rule="evenodd" clip-rule="evenodd" d="M112.867 40.5911C112.539 40.5911 112.274 40.3372 112.274 40.0233C112.274 39.7094 112.539 39.4551 112.867 39.4551C113.194 39.4551 113.46 39.7094 113.46 40.0233C113.46 40.3372 113.194 40.5911 112.867 40.5911ZM114.881 43.4573C114.928 42.9915 115.102 40.7456 114.194 39.6176C113.177 38.3554 111.823 38.7521 111.522 39.1846C111.221 39.6176 111.145 40.7713 112.914 41.8537C114.318 42.7123 114.725 43.2741 114.834 43.4702C114.847 43.4641 114.858 43.4551 114.873 43.4539C114.876 43.4539 114.878 43.457 114.881 43.4573V43.4573Z" fill="#00A3AD"/>
<path fill-rule="evenodd" clip-rule="evenodd" d="M110.524 44.3987C110.17 44.3987 109.884 44.124 109.884 43.7855C109.884 43.4467 110.17 43.1724 110.524 43.1724C110.877 43.1724 111.164 43.4467 111.164 43.7855C111.164 44.124 110.877 44.3987 110.524 44.3987ZM112.236 43.1184C110.392 42.1082 108.924 42.8656 108.849 43.8029C108.774 44.7409 109.828 44.9215 111.484 45.0655C113.063 45.203 114.017 45.7304 114.168 45.9359L114.171 45.7897C114.09 45.305 113.734 43.9382 112.236 43.1184V43.1184Z" fill="#00A3AD"/>
<path fill-rule="evenodd" clip-rule="evenodd" d="M110.577 47.964C110.353 47.964 110.172 47.7898 110.172 47.5756C110.172 47.3618 110.353 47.1884 110.577 47.1884C110.8 47.1884 110.981 47.3618 110.981 47.5756C110.981 47.7898 110.8 47.964 110.577 47.964ZM110.699 46.6115C108.78 46.8639 109.156 48.1978 109.758 48.5586C110.361 48.9194 111.565 48.4506 112.543 48.27C113.491 48.0955 114.153 48.0241 114.399 48.151L114.399 48.137C114.178 47.9258 112.488 46.3762 110.699 46.6115V46.6115Z" fill="#00A3AD"/>
<path fill-rule="evenodd" clip-rule="evenodd" d="M117.214 48.7358C117.438 48.7358 117.619 48.9092 117.619 49.1234C117.619 49.338 117.438 49.5114 117.214 49.5114C116.991 49.5114 116.81 49.338 116.81 49.1234C116.81 48.9092 116.991 48.7358 117.214 48.7358ZM114.926 50.7619C115.228 50.5658 116.078 50.2288 116.622 50.1245C117.28 49.9984 118.268 49.5492 118.503 49.205C118.823 48.7358 118.71 47.7264 117.336 48.015C116.218 48.2496 115.25 49.9885 114.929 50.6281C114.855 50.7747 114.815 50.8639 114.815 50.8639C114.822 50.8385 114.862 50.803 114.926 50.7619V50.7619Z" fill="#00A3AD"/>
<path fill-rule="evenodd" clip-rule="evenodd" d="M117.845 40.9888C118.177 40.9888 118.447 41.2472 118.447 41.566C118.447 41.8845 118.177 42.1429 117.845 42.1429C117.512 42.1429 117.243 41.8845 117.243 41.566C117.243 41.2472 117.512 40.9888 117.845 40.9888ZM114.815 43.6574C114.815 43.6574 114.866 43.6566 114.951 43.6532C115.588 43.6291 118.332 43.45 118.88 42.161C119.5 40.7005 118.409 39.8709 117.355 40.3575C116.432 40.7844 115.176 42.9974 114.88 43.5376C114.838 43.6136 114.815 43.6574 114.815 43.6574V43.6574Z" fill="#00A3AD"/>
<path fill-rule="evenodd" clip-rule="evenodd" d="M117.855 46.3343C117.517 46.3343 117.243 46.0725 117.243 45.7484C117.243 45.4254 117.517 45.1628 117.855 45.1628C118.192 45.1628 118.466 45.4254 118.466 45.7484C118.466 46.0725 118.192 46.3343 117.855 46.3343ZM119.275 44.8202C118.598 44.4594 117.563 44.4416 116.339 45.1451C115.535 45.6075 115.131 46.5126 114.947 47.0793C114.852 47.3743 114.815 47.5791 114.815 47.5791C114.823 47.5689 114.868 47.5459 114.939 47.5153C115.36 47.332 116.81 46.8473 118.278 46.7854C119.99 46.7136 119.952 45.1806 119.275 44.8202V44.8202Z" fill="#00A3AD"/>
<path d="M114.79 43.6068C114.79 43.6068 113.861 50.5729 114.734 53.3882C115.607 56.2035 115.774 57.5274 115.774 57.5274" stroke="#00A3AD" stroke-width="1.9244" stroke-linecap="round" stroke-linejoin="round"/>
<path fill-rule="evenodd" clip-rule="evenodd" d="M219.623 45.092C219.658 45.0443 219.728 45.0312 219.78 45.065C219.781 45.065 219.792 45.0726 219.796 45.0755C220.078 44.8268 220.291 44.4988 220.363 44.1045C220.498 43.3623 219.777 42.3689 218.943 41.7301C219.107 42.4871 219.021 43.2534 218.334 43.4999C217.613 43.7591 217.082 43.0553 216.742 42.344C216.735 43.1904 216.942 44.3346 217.382 45.0303C217.845 45.7573 218.901 45.7265 219.631 45.2081C219.605 45.173 219.595 45.1291 219.623 45.092" fill="#578EA9"/>
<path fill-rule="evenodd" clip-rule="evenodd" d="M218.334 43.4998C219.021 43.2533 219.107 42.487 218.943 41.73C218.189 41.1499 217.341 40.8641 216.953 41.3239C216.82 41.4809 216.748 41.8655 216.742 42.3439C217.082 43.0553 217.613 43.759 218.334 43.4998" fill="#E05955"/>
<path fill-rule="evenodd" clip-rule="evenodd" d="M222.136 39.9113C221.748 39.5127 221.934 38.7633 222.261 38.057C221.804 38.4636 221.359 39.0441 221.099 39.7909C220.537 41.4041 221.833 42.5715 223.173 42.5715C224.511 42.5715 225.506 40.8401 225.159 39.549C225.098 39.3244 225.029 39.1112 224.951 38.9153C224.62 40.7725 222.849 40.6446 222.136 39.9113" fill="#578EA9"/>
<path fill-rule="evenodd" clip-rule="evenodd" d="M222.136 39.9113C222.849 40.6446 224.62 40.7725 224.951 38.9153C224.591 37.9895 224.067 37.4064 223.603 37.3727C223.326 37.3537 222.787 37.588 222.261 38.057C221.934 38.7633 221.748 39.5127 222.136 39.9113" fill="#E05955"/>
<path fill-rule="evenodd" clip-rule="evenodd" d="M225.045 45.87C225.066 45.9105 225.05 45.9531 225.018 45.9848C225.097 46.0937 225.186 46.1942 225.288 46.2803C226.195 47.0449 228.01 46.9647 228.658 45.3519C228.771 45.0644 228.875 44.8128 228.963 44.5903C228.152 45.6623 226.654 45.2363 226.499 44.2644C226.324 43.176 227.405 42.8543 227.405 42.8543L227.437 42.8374C226.957 42.9075 226.426 43.0308 225.894 43.2174C224.634 43.6539 224.425 44.9555 224.915 45.8214C224.966 45.8096 225.02 45.8248 225.045 45.87" fill="#578EA9"/>
<path fill-rule="evenodd" clip-rule="evenodd" d="M226.499 44.2645C226.654 45.2364 228.152 45.6623 228.963 44.5904C229.368 43.5628 229.469 43.1659 229.22 42.9346C229.023 42.7531 228.321 42.7045 227.437 42.8375L227.405 42.8544C227.405 42.8544 226.324 43.1761 226.499 44.2645" fill="#E05955"/>
<path fill-rule="evenodd" clip-rule="evenodd" d="M222.935 48.3807C222.916 48.3934 222.894 48.4005 222.87 48.4005C222.858 48.4005 222.846 48.3989 222.834 48.3951C222.775 48.3765 222.743 48.3169 222.762 48.2616C222.827 48.0805 222.903 47.9138 222.983 47.755L223.372 42.701C223.376 42.6423 223.329 42.5921 223.267 42.5879C223.206 42.5815 223.151 42.6271 223.146 42.6854L222.634 49.35C222.716 49.7515 222.762 50.1801 222.762 50.6352L222.935 48.3807" fill="#00A3AD"/>
<path d="M222.935 48.3807C222.916 48.3934 222.894 48.4005 222.87 48.4005C222.858 48.4005 222.846 48.3989 222.834 48.3951C222.775 48.3765 222.743 48.3169 222.762 48.2616C222.827 48.0805 222.903 47.9138 222.983 47.755L223.372 42.701C223.376 42.6423 223.329 42.5921 223.267 42.5879C223.206 42.5815 223.151 42.6271 223.146 42.6854L222.634 49.35C222.716 49.7515 222.762 50.1801 222.762 50.6352L222.935 48.3807" stroke="#00A3AD" stroke-width="1.2701"/>
<path fill-rule="evenodd" clip-rule="evenodd" d="M222.746 50.8396C222.755 50.8256 222.766 50.813 222.767 50.7961C222.768 50.7408 222.762 50.6897 222.762 50.6352C222.762 50.1801 222.716 49.7516 222.634 49.3501C222.079 46.6456 219.947 45.1759 219.796 45.0754C219.792 45.0725 219.781 45.0649 219.78 45.0649C219.728 45.0311 219.658 45.0442 219.623 45.0919C219.595 45.1291 219.605 45.173 219.631 45.208C219.638 45.2181 219.64 45.2312 219.652 45.2388C219.682 45.2578 222.527 47.1307 222.536 50.6268C222.536 50.6825 222.542 50.7344 222.541 50.791C222.54 50.8497 222.589 50.8978 222.651 50.8991C222.697 50.8991 222.727 50.8729 222.746 50.8396Z" fill="#00A3AD" stroke="#00A3AD" stroke-width="1.2701"/>
<path fill-rule="evenodd" clip-rule="evenodd" d="M222.834 48.3951C222.846 48.3989 222.858 48.4006 222.87 48.4006C222.894 48.4006 222.916 48.3934 222.935 48.3808C222.954 48.3685 222.969 48.3504 222.977 48.3284C223.559 46.7005 224.98 46.0182 224.994 46.0119C225.006 46.006 225.01 45.9937 225.018 45.9849C225.05 45.9532 225.066 45.9106 225.045 45.87C225.02 45.8249 224.966 45.8097 224.915 45.8215C224.907 45.8232 224.9 45.8198 224.892 45.8227C224.837 45.8485 223.668 46.4104 222.983 47.7551C222.903 47.9138 222.827 48.0806 222.762 48.2617C222.743 48.317 222.775 48.3766 222.834 48.3951" fill="#00A3AD"/>
<path d="M222.834 48.3951C222.846 48.3989 222.858 48.4006 222.87 48.4006C222.894 48.4006 222.916 48.3934 222.935 48.3808C222.954 48.3685 222.969 48.3504 222.977 48.3284C223.559 46.7005 224.98 46.0182 224.994 46.0119C225.006 46.006 225.01 45.9937 225.018 45.9849C225.05 45.9532 225.066 45.9106 225.045 45.87C225.02 45.8249 224.966 45.8097 224.915 45.8215C224.907 45.8232 224.9 45.8198 224.892 45.8227C224.837 45.8485 223.668 46.4104 222.983 47.7551C222.903 47.9138 222.827 48.0806 222.762 48.2617C222.743 48.317 222.775 48.3766 222.834 48.3951" stroke="#00A3AD" stroke-width="1.2701"/>
<path fill-rule="evenodd" clip-rule="evenodd" d="M310.545 45.092C310.58 45.0443 310.65 45.0312 310.702 45.065C310.703 45.065 310.714 45.0726 310.718 45.0755C311 44.8268 311.213 44.4988 311.285 44.1045C311.42 43.3623 310.699 42.3689 309.865 41.7301C310.028 42.4871 309.943 43.2534 309.256 43.4999C308.535 43.7591 308.003 43.0553 307.664 42.344C307.657 43.1904 307.864 44.3346 308.304 45.0303C308.766 45.7573 309.823 45.7265 310.552 45.2081C310.527 45.173 310.517 45.1291 310.545 45.092" fill="#578EA9"/>
<path fill-rule="evenodd" clip-rule="evenodd" d="M309.256 43.4998C309.943 43.2533 310.028 42.487 309.865 41.73C309.111 41.1499 308.263 40.8641 307.874 41.3239C307.742 41.4809 307.669 41.8655 307.664 42.3439C308.003 43.0553 308.535 43.759 309.256 43.4998" fill="#E05955"/>
<path fill-rule="evenodd" clip-rule="evenodd" d="M313.058 39.9113C312.67 39.5127 312.856 38.7633 313.183 38.057C312.726 38.4636 312.281 39.0441 312.021 39.7909C311.459 41.4041 312.755 42.5715 314.095 42.5715C315.432 42.5715 316.428 40.8401 316.08 39.549C316.02 39.3244 315.95 39.1112 315.873 38.9153C315.541 40.7725 313.771 40.6446 313.058 39.9113" fill="#578EA9"/>
<path fill-rule="evenodd" clip-rule="evenodd" d="M313.058 39.9113C313.771 40.6446 315.541 40.7725 315.873 38.9153C315.512 37.9895 314.989 37.4064 314.525 37.3727C314.247 37.3537 313.708 37.588 313.183 38.057C312.856 38.7633 312.669 39.5127 313.058 39.9113" fill="#E05955"/>
<path fill-rule="evenodd" clip-rule="evenodd" d="M315.966 45.87C315.988 45.9105 315.972 45.9531 315.94 45.9848C316.019 46.0937 316.108 46.1942 316.21 46.2803C317.117 47.0449 318.931 46.9647 319.579 45.3519C319.693 45.0644 319.797 44.8128 319.885 44.5903C319.074 45.6623 317.576 45.2363 317.42 44.2644C317.246 43.176 318.327 42.8543 318.327 42.8543L318.358 42.8374C317.879 42.9075 317.348 43.0308 316.816 43.2174C315.555 43.6539 315.347 44.9555 315.836 45.8214C315.888 45.8096 315.942 45.8248 315.966 45.87" fill="#578EA9"/>
<path fill-rule="evenodd" clip-rule="evenodd" d="M317.42 44.2645C317.576 45.2364 319.074 45.6623 319.885 44.5904C320.29 43.5628 320.39 43.1659 320.142 42.9346C319.945 42.7531 319.242 42.7045 318.358 42.8375L318.327 42.8544C318.327 42.8544 317.246 43.1761 317.42 44.2645" fill="#E05955"/>
<path fill-rule="evenodd" clip-rule="evenodd" d="M313.857 48.3807C313.838 48.3934 313.815 48.4005 313.791 48.4005C313.78 48.4005 313.768 48.3989 313.756 48.3951C313.696 48.3765 313.665 48.3169 313.684 48.2616C313.749 48.0805 313.824 47.9138 313.905 47.755L314.293 42.701C314.298 42.6423 314.251 42.5921 314.188 42.5879C314.128 42.5815 314.072 42.6271 314.067 42.6854L313.556 49.35C313.638 49.7515 313.684 50.1801 313.684 50.6352L313.857 48.3807" fill="#00A3AD"/>
<path d="M313.857 48.3807C313.838 48.3934 313.815 48.4005 313.791 48.4005C313.78 48.4005 313.768 48.3989 313.756 48.3951C313.696 48.3765 313.665 48.3169 313.684 48.2616C313.749 48.0805 313.824 47.9138 313.905 47.755L314.293 42.701C314.298 42.6423 314.251 42.5921 314.188 42.5879C314.128 42.5815 314.072 42.6271 314.067 42.6854L313.556 49.35C313.638 49.7515 313.684 50.1801 313.684 50.6352L313.857 48.3807" stroke="#00A3AD" stroke-width="1.2701"/>
<path fill-rule="evenodd" clip-rule="evenodd" d="M313.668 50.8396C313.676 50.8256 313.688 50.813 313.689 50.7961C313.69 50.7408 313.684 50.6897 313.684 50.6352C313.684 50.1801 313.638 49.7516 313.556 49.3501C313.001 46.6456 310.869 45.1759 310.718 45.0754C310.714 45.0725 310.703 45.0649 310.702 45.0649C310.65 45.0311 310.58 45.0442 310.545 45.0919C310.517 45.1291 310.527 45.173 310.552 45.208C310.56 45.2181 310.562 45.2312 310.574 45.2388C310.604 45.2578 313.449 47.1307 313.458 50.6268C313.458 50.6825 313.464 50.7344 313.462 50.791C313.461 50.8497 313.511 50.8978 313.573 50.8991C313.619 50.8991 313.649 50.8729 313.668 50.8396Z" fill="#00A3AD" stroke="#00A3AD" stroke-width="1.2701"/>
<path fill-rule="evenodd" clip-rule="evenodd" d="M313.756 48.3951C313.768 48.3989 313.78 48.4006 313.791 48.4006C313.815 48.4006 313.838 48.3934 313.857 48.3808C313.876 48.3685 313.891 48.3504 313.899 48.3284C314.481 46.7005 315.902 46.0182 315.916 46.0119C315.928 46.006 315.931 45.9937 315.94 45.9849C315.972 45.9532 315.988 45.9106 315.966 45.87C315.942 45.8249 315.888 45.8097 315.836 45.8215C315.829 45.8232 315.821 45.8198 315.814 45.8227C315.759 45.8485 314.59 46.4104 313.905 47.7551C313.824 47.9138 313.749 48.0806 313.684 48.2617C313.665 48.317 313.696 48.3766 313.756 48.3951" fill="#00A3AD"/>
<path d="M313.756 48.3951C313.768 48.3989 313.78 48.4006 313.791 48.4006C313.815 48.4006 313.838 48.3934 313.857 48.3808C313.876 48.3685 313.891 48.3504 313.899 48.3284C314.481 46.7005 315.902 46.0182 315.916 46.0119C315.928 46.006 315.931 45.9937 315.94 45.9849C315.972 45.9532 315.988 45.9106 315.966 45.87C315.942 45.8249 315.888 45.8097 315.836 45.8215C315.829 45.8232 315.821 45.8198 315.814 45.8227C315.759 45.8485 314.59 46.4104 313.905 47.7551C313.824 47.9138 313.749 48.0806 313.684 48.2617C313.665 48.317 313.696 48.3766 313.756 48.3951" stroke="#00A3AD" stroke-width="1.2701"/>
<path fill-rule="evenodd" clip-rule="evenodd" d="M264.123 41.9097C264.875 41.3104 265.546 42.4548 265.911 43.083C266.273 43.7085 267.141 43.5448 267.306 42.59C267.476 41.6367 267.838 41.2552 268.117 41.4471C268.397 41.6367 268.594 42.3722 268.929 41.9356C269.264 41.5 269.459 40.7653 270.073 41.0116C270.61 41.2248 270.892 41.7288 271.013 42.2177C271.01 42.2215 271.013 42.2234 271.015 42.2279C271.106 42.9433 271.082 43.6666 270.829 44.2533C270.512 44.9927 269.76 45.5116 268.889 45.8409C268.956 45.8039 269.025 45.7643 269.094 45.7259C270.912 44.69 269.738 43.7367 269.264 44.0355C268.788 44.3344 268.62 44.0637 268.341 43.7896C268.062 43.5189 267.838 44.0074 267.587 44.8274C267.335 45.6425 266.412 45.3985 266.077 45.0715C265.741 44.744 264.652 44.1993 264.373 44.9622C264.094 45.7259 265.323 46.107 265.323 46.107L265.31 46.1489C264.393 45.8588 263.765 44.9473 263.521 43.8288V43.8265C263.508 43.3685 263.55 42.3635 264.123 41.9097" fill="#395E6E"/>
<path fill-rule="evenodd" clip-rule="evenodd" d="M264.373 44.9622C264.652 44.1993 265.741 44.7441 266.077 45.0715C266.412 45.3985 267.335 45.6425 267.587 44.8274C267.838 44.0074 268.062 43.5189 268.341 43.7896C268.62 44.0637 268.788 44.3344 269.264 44.0356C269.738 43.7367 270.912 44.69 269.094 45.7259C269.025 45.7644 268.956 45.8039 268.889 45.8409C268.426 46.0152 267.929 46.1329 267.444 46.2033C267.415 46.1489 267.395 46.118 267.388 46.1085C267.358 46.0655 267.298 46.0529 267.253 46.0826C267.208 46.1116 267.196 46.171 267.226 46.2151C267.226 46.2159 267.231 46.2223 267.236 46.2311C266.619 46.3034 266.033 46.297 265.575 46.2166C265.484 46.201 265.395 46.177 265.31 46.1489L265.323 46.107C265.323 46.107 264.094 45.7259 264.373 44.9622" fill="#00A3AD"/>
<path fill-rule="evenodd" clip-rule="evenodd" d="M271.013 42.2176C270.892 41.7287 270.61 41.2247 270.073 41.0115C269.459 40.7652 269.264 41.4999 268.929 41.9355C268.594 42.3721 268.397 41.6366 268.117 41.447C267.838 41.2551 267.476 41.6366 267.306 42.5899C267.141 43.5447 266.273 43.7084 265.911 43.0829C265.546 42.4548 264.875 41.3103 264.123 41.9096C263.55 42.3634 263.508 43.3685 263.521 43.8265C263.4 43.2748 263.374 42.6748 263.452 42.0733C263.703 40.1393 264.541 39.1011 265.182 38.8304C265.826 38.5563 266.161 39.3474 266.412 39.6744C266.664 40.0015 267.083 39.8381 267.167 39.5107C267.167 39.5107 267.252 39.0208 267.614 38.9397C267.977 38.8574 268.397 39.4848 268.705 39.2385C269.011 38.9926 269.403 38.6656 269.906 39.2103C270.232 39.5659 270.831 40.8782 271.013 42.2176" fill="#E05955"/>
<path fill-rule="evenodd" clip-rule="evenodd" d="M267.253 46.0826C267.298 46.0529 267.358 46.0655 267.388 46.1085C267.395 46.118 267.415 46.1489 267.444 46.2033C267.647 46.5802 268.291 48.1042 267.92 51.7651C267.862 51.8252 267.673 52.0815 267.811 52.6689C267.65 53.8704 267.388 55.268 266.983 56.8955C266.972 56.9397 266.932 56.9686 266.888 56.9686C266.88 56.9686 266.873 56.9679 266.865 56.9656C266.812 56.9538 266.78 56.9016 266.793 56.851C267.15 55.4172 267.393 54.1632 267.555 53.0644C267.615 52.9853 267.673 52.8806 267.726 52.7302C267.726 52.7302 267.731 52.4922 267.683 52.0837C268.154 47.9138 267.333 46.3933 267.236 46.2311C267.231 46.2223 267.226 46.2159 267.226 46.2151C267.196 46.1709 267.208 46.1115 267.253 46.0826" fill="#00A3AD"/>
<path d="M267.253 46.0826C267.298 46.0529 267.358 46.0655 267.388 46.1085C267.395 46.118 267.415 46.1489 267.444 46.2033C267.647 46.5802 268.291 48.1042 267.92 51.7651C267.862 51.8252 267.673 52.0815 267.811 52.6689C267.65 53.8704 267.388 55.268 266.983 56.8955C266.972 56.9397 266.932 56.9686 266.888 56.9686C266.88 56.9686 266.873 56.9679 266.865 56.9656C266.812 56.9538 266.78 56.9016 266.793 56.851C267.15 55.4172 267.393 54.1632 267.555 53.0644C267.615 52.9853 267.673 52.8806 267.726 52.7302C267.726 52.7302 267.731 52.4922 267.683 52.0837C268.154 47.9138 267.333 46.3933 267.236 46.2311C267.231 46.2223 267.226 46.2159 267.226 46.2151C267.196 46.1709 267.208 46.1115 267.253 46.0826" stroke="#00A3AD" stroke-width="1.15464"/>
<path fill-rule="evenodd" clip-rule="evenodd" d="M267.726 52.7301C267.673 52.8805 267.615 52.9852 267.555 53.0644C267.333 53.3591 267.074 53.2045 266.832 52.8394C266.525 52.3761 266.021 50.5768 265.742 49.8139C265.463 49.0509 264.484 47.6606 265.043 47.3332C265.602 47.0069 266.413 47.961 267.084 49.7046C267.466 50.699 267.621 51.5419 267.683 52.0837C267.731 52.4922 267.726 52.7301 267.726 52.7301" fill="#00A3AD"/>
<path fill-rule="evenodd" clip-rule="evenodd" d="M267.92 51.765C267.929 51.7551 267.936 51.7494 267.936 51.7494C267.936 51.7494 268.467 48.8598 269.277 47.9332C270.087 47.0069 270.954 47.4702 270.786 48.3424C270.618 49.2147 269.389 50.6317 269.166 51.5583C268.942 52.4846 268.02 53.4664 267.824 52.7301C267.818 52.7077 267.817 52.6901 267.812 52.6688C267.673 52.0814 267.862 51.8252 267.92 51.765" fill="#00A3AD"/>
<path fill-rule="evenodd" clip-rule="evenodd" d="M267.074 37.5851C266.776 37.4941 266.571 36.7129 267.074 36.3676C267.354 36.1754 267.857 36.4769 267.913 37.0034C267.968 37.5307 267.372 37.6761 267.074 37.5851" fill="#E05955"/>
<path fill-rule="evenodd" clip-rule="evenodd" d="M266.608 38.7478C266.292 38.8574 265.882 38.5849 266.068 37.9121C266.133 37.6761 266.627 37.7123 266.795 37.9852C266.963 38.2574 266.925 38.6389 266.608 38.7478" fill="#E05955"/>
<path fill-rule="evenodd" clip-rule="evenodd" d="M268.49 38.0576C268.099 37.9487 268.024 37.3129 268.546 37.1492C268.866 37.0491 269.161 37.2943 269.161 37.6579C269.161 38.0214 268.881 38.1665 268.49 38.0576" fill="#E05955"/>
<path fill-rule="evenodd" clip-rule="evenodd" d="M334.289 41.3429C334.151 41.3429 334.038 41.2317 334.038 41.0947C334.038 41.0945 334.038 41.0945 334.038 41.0945V39.8531C334.038 39.7159 334.151 39.6047 334.289 39.6047C334.428 39.6047 334.54 39.7159 334.54 39.8531V41.0945C334.54 41.2316 334.428 41.3427 334.289 41.3429C334.289 41.3429 334.289 41.3429 334.289 41.3429Z" fill="#CE2526"/>
<path fill-rule="evenodd" clip-rule="evenodd" d="M333.285 41.5911C333.147 41.5911 333.035 41.48 333.034 41.343C333.034 41.3428 333.034 41.3428 333.034 41.3428V40.1014C333.034 39.9642 333.147 39.853 333.285 39.853C333.424 39.853 333.536 39.9642 333.536 40.1014V41.3428C333.536 41.4799 333.424 41.591 333.286 41.5911H333.285Z" fill="#CE2526"/>
<path fill-rule="evenodd" clip-rule="evenodd" d="M335.293 41.5911C335.154 41.5911 335.042 41.48 335.042 41.343C335.042 41.3428 335.042 41.3428 335.042 41.3428V40.1014C335.042 39.9642 335.154 39.853 335.293 39.853C335.431 39.853 335.543 39.9642 335.543 40.1014V41.3428C335.544 41.4799 335.431 41.591 335.293 41.5911Z" fill="#CE2526"/>
<path d="M334.305 48.5587C334.305 48.5587 335.16 53.9284 333.536 57.6467" stroke="#0C7076" stroke-width="1.9244" stroke-linecap="round" stroke-linejoin="round"/>
<path fill-rule="evenodd" clip-rule="evenodd" d="M334.305 41.2085C333.362 41.2096 332.598 41.9515 332.597 42.8669V46.1837C332.597 46.3146 332.706 46.4206 332.841 46.4206H335.77C335.905 46.4206 336.014 46.3146 336.014 46.1838V46.1837V42.8669C336.013 41.9515 335.249 41.2096 334.305 41.2085Z" fill="#FDBD40"/>
<path fill-rule="evenodd" clip-rule="evenodd" d="M330.035 41.2085C332.393 41.2085 334.305 42.9138 334.305 45.0174V48.8262H332.631C331.433 48.8262 330.462 47.9599 330.462 46.8912L330.035 41.2085Z" fill="#F16730"/>
<path fill-rule="evenodd" clip-rule="evenodd" d="M335.98 48.8262H334.306V45.0174C334.306 42.9138 336.218 41.2085 338.576 41.2085L338.149 46.8912C338.149 47.9599 337.178 48.8262 335.98 48.8262Z" fill="#EF4C23"/>
<path d="M138.873 46.0176C138.873 46.0176 139.487 49.4477 139.282 52.4249C139.077 55.4021 137.977 57.6467 137.977 57.6467" stroke="#0C7076" stroke-width="1.9244" stroke-linecap="round"/>
<path fill-rule="evenodd" clip-rule="evenodd" d="M141.225 44.7678C140.924 45.5701 140.184 46.1716 139.282 46.3061C139.47 48.0183 141.259 49.5064 142.399 48.8751C143.688 48.1618 142.916 45.5271 141.225 44.7678Z" fill="#FDBD40"/>
<path fill-rule="evenodd" clip-rule="evenodd" d="M137.357 42.1109C136.298 40.7255 133.982 40.2994 133.326 41.3899C132.588 42.6151 134.598 44.5253 136.467 44.3857C136.3 43.4953 136.669 42.6385 137.357 42.1109Z" fill="#FDBD40"/>
<path fill-rule="evenodd" clip-rule="evenodd" d="M140.125 41.9051C141.076 40.3626 140.31 37.9264 138.904 37.9264C137.494 37.9264 136.739 40.3658 137.681 41.9004C138.431 41.4927 139.361 41.4861 140.125 41.9051Z" fill="#FDBD40"/>
<path fill-rule="evenodd" clip-rule="evenodd" d="M144.497 41.3899C143.837 40.2923 141.507 40.7337 140.457 42.123C141.152 42.665 141.493 43.5222 141.332 44.3836C143.216 44.5449 145.235 42.6141 144.497 41.3899Z" fill="#FDBD40"/>
<path fill-rule="evenodd" clip-rule="evenodd" d="M136.574 44.7721C134.863 45.5498 134.143 48.1739 135.41 48.8751C136.555 49.5091 138.339 48.011 138.527 46.3077C137.622 46.1767 136.878 45.5756 136.574 44.7721Z" fill="#FDBD40"/>
<path fill-rule="evenodd" clip-rule="evenodd" d="M138.899 41.5396C137.505 41.5396 136.371 42.6271 136.371 43.9637C136.371 45.3003 137.505 46.3878 138.899 46.3878C140.293 46.3878 141.427 45.3003 141.427 43.9637C141.427 42.6271 140.293 41.5396 138.899 41.5396Z" fill="#CE2526"/>
<path fill-rule="evenodd" clip-rule="evenodd" d="M254.254 53.0752C254.254 53.0752 254.409 49.8901 251.135 48.7539C251.021 48.7146 250.895 48.7788 250.867 48.8918C250.662 49.702 250.205 52.6487 254.254 53.0752V53.0752Z" fill="#67C1B0"/>
<path d="M254.188 45.1785C254.188 45.1785 254.802 48.6086 254.597 51.5858C254.393 54.563 253.293 56.8076 253.293 56.8076" stroke="#00A3AD" stroke-width="2" stroke-linecap="round"/>
<path fill-rule="evenodd" clip-rule="evenodd" d="M256.541 43.9287C256.239 44.731 255.499 45.3325 254.597 45.4669C254.785 47.1792 256.574 48.6673 257.714 48.036C259.003 47.3227 258.231 44.688 256.541 43.9287Z" fill="#FDBD40"/>
<path fill-rule="evenodd" clip-rule="evenodd" d="M252.672 41.2718C251.613 39.8864 249.297 39.4603 248.641 40.5508C247.903 41.776 249.914 43.6862 251.782 43.5466C251.615 42.6562 251.984 41.7994 252.672 41.2718Z" fill="#FDBD40"/>
<path fill-rule="evenodd" clip-rule="evenodd" d="M255.44 41.066C256.392 39.5235 255.625 37.0873 254.22 37.0873C252.809 37.0873 252.055 39.5267 252.997 41.0613C253.747 40.6536 254.676 40.647 255.44 41.066Z" fill="#FDBD40"/>
<path fill-rule="evenodd" clip-rule="evenodd" d="M259.813 40.5508C259.152 39.4532 256.822 39.8946 255.772 41.2839C256.468 41.8259 256.808 42.6831 256.647 43.5445C258.531 43.7058 260.55 41.775 259.813 40.5508Z" fill="#FDBD40"/>
<path fill-rule="evenodd" clip-rule="evenodd" d="M251.889 43.933C250.178 44.7107 249.458 47.3348 250.725 48.036C251.87 48.67 253.654 47.1719 253.842 45.4686C252.937 45.3376 252.193 44.7365 251.889 43.933Z" fill="#FDBD40"/>
<path fill-rule="evenodd" clip-rule="evenodd" d="M254.214 40.7004C252.82 40.7004 251.686 41.788 251.686 43.1246C251.686 44.4611 252.82 45.5487 254.214 45.5487C255.608 45.5487 256.742 44.4611 256.742 43.1246C256.742 41.788 255.608 40.7004 254.214 40.7004Z" fill="#CE2526"/>
<path d="M238.786 42.1882C238.786 42.1882 239.774 53.8041 238.181 57.2424" stroke="#00A3AD" stroke-width="2" stroke-linecap="round" stroke-linejoin="round"/>
<path fill-rule="evenodd" clip-rule="evenodd" d="M239.258 53.5028C239.203 55.1697 236.29 55.5668 234.417 54.1424C232.544 52.718 230.683 52.1646 230.683 52.1646C230.683 52.1646 234.1 49.7717 236.126 50.1933C238.153 50.615 239.313 51.8359 239.258 53.5028Z" fill="#00A3AD"/>
<path fill-rule="evenodd" clip-rule="evenodd" d="M236.759 45.517V45.517C237.577 45.517 238.24 44.8928 238.24 44.1228V40.463H234.351C233.533 40.463 232.87 41.0872 232.87 41.8572V41.8572C232.87 43.8785 234.611 45.517 236.759 45.517Z" fill="#FF5A5A"/>
<path fill-rule="evenodd" clip-rule="evenodd" d="M239.722 45.517V45.517C238.904 45.517 238.24 44.8928 238.24 44.1228V40.463H242.13C242.948 40.463 243.611 41.0872 243.611 41.8572V41.8572C243.611 43.8785 241.87 45.517 239.722 45.517Z" fill="#FF464B"/>
<path fill-rule="evenodd" clip-rule="evenodd" d="M239.722 35.4089V35.4089C238.904 35.4089 238.24 36.0331 238.24 36.8032V40.463H242.13C242.948 40.463 243.611 39.8388 243.611 39.0687V39.0687C243.611 37.0475 241.87 35.4089 239.722 35.4089Z" fill="#FF5A5A"/>
<path fill-rule="evenodd" clip-rule="evenodd" d="M236.759 35.4089V35.4089C237.577 35.4089 238.24 36.0331 238.24 36.8032V40.463H234.351C233.533 40.463 232.87 39.8388 232.87 39.0687V39.0687C232.87 37.0475 234.611 35.4089 236.759 35.4089Z" fill="#FF464B"/>
<path fill-rule="evenodd" clip-rule="evenodd" d="M238.24 38.3717C237.013 38.3717 236.018 39.308 236.018 40.463H238.24V38.3717Z" fill="#FF8C4E"/>
<path fill-rule="evenodd" clip-rule="evenodd" d="M240.463 40.463C240.463 39.308 239.468 38.3717 238.24 38.3717V40.463H240.463Z" fill="#FFA555"/>
<path fill-rule="evenodd" clip-rule="evenodd" d="M238.24 42.5543C239.468 42.5543 240.463 41.618 240.463 40.463H238.24V42.5543Z" fill="#FF8C4E"/>
<path fill-rule="evenodd" clip-rule="evenodd" d="M236.018 40.463C236.018 41.618 237.013 42.5543 238.24 42.5543V40.463H236.018Z" fill="#FFA555"/>
<path fill-rule="evenodd" clip-rule="evenodd" d="M241.3 38.2612C241.238 38.1848 241.122 38.1699 241.041 38.2286L239.231 39.5306L240.615 37.828C240.677 37.7515 240.662 37.6421 240.58 37.5836C240.499 37.5253 240.383 37.5398 240.321 37.6162L238.108 40.3387L235.215 42.4206C235.134 42.4791 235.118 42.5885 235.181 42.6649C235.217 42.7097 235.272 42.7333 235.328 42.7333C235.367 42.7333 235.407 42.7217 235.44 42.6975L237.25 41.3955L235.866 43.0981C235.804 43.1745 235.819 43.2839 235.901 43.3424C235.934 43.3666 235.974 43.3782 236.013 43.3782C236.069 43.3782 236.124 43.3547 236.16 43.3098L238.373 40.5873L241.266 38.5055C241.347 38.447 241.362 38.3376 241.3 38.2612Z" fill="#D7464B"/>
<path fill-rule="evenodd" clip-rule="evenodd" d="M241.266 42.4205L238.373 40.3386L236.16 37.6161C236.098 37.5397 235.982 37.5251 235.901 37.5835C235.819 37.642 235.804 37.7514 235.866 37.8278L237.25 39.5305L235.44 38.2284C235.359 38.1697 235.243 38.1847 235.181 38.261C235.118 38.3375 235.134 38.4469 235.215 38.5053L238.108 40.5872L240.321 43.3097C240.357 43.3546 240.412 43.3781 240.468 43.3781C240.507 43.3781 240.547 43.3665 240.58 43.3423C240.662 43.2838 240.677 43.1744 240.615 43.098L239.231 41.3954L241.041 42.6974C241.074 42.7216 241.114 42.7332 241.153 42.7332C241.209 42.7332 241.264 42.7097 241.3 42.6648C241.362 42.5884 241.347 42.4789 241.266 42.4205Z" fill="#CD4146"/>
<path fill-rule="evenodd" clip-rule="evenodd" d="M239.907 40.463C239.907 40.2284 239.742 40.0321 239.516 39.966C239.626 39.7687 239.595 39.5199 239.419 39.3539C239.243 39.188 238.978 39.1593 238.769 39.2631C238.698 39.0502 238.49 38.8945 238.24 38.8945C237.991 38.8945 237.783 39.0502 237.712 39.2631C237.503 39.1593 237.238 39.188 237.062 39.3539C236.886 39.5198 236.855 39.7687 236.965 39.966C236.739 40.0321 236.574 40.2283 236.574 40.463C236.574 40.6977 236.739 40.8939 236.965 40.96C236.855 41.1573 236.886 41.4062 237.062 41.5721C237.238 41.738 237.503 41.7667 237.712 41.6629C237.783 41.8758 237.991 42.0315 238.24 42.0315C238.49 42.0315 238.698 41.8758 238.769 41.6629C238.978 41.7667 239.243 41.738 239.419 41.5721C239.595 41.4062 239.626 41.1574 239.516 40.96C239.742 40.8939 239.907 40.6977 239.907 40.463Z" fill="#91323C"/>
<path fill-rule="evenodd" clip-rule="evenodd" d="M237.129 40.463C237.129 41.0397 237.628 41.5087 238.24 41.5087C238.853 41.5087 239.352 41.0397 239.352 40.463C239.352 39.8864 238.853 39.4174 238.24 39.4174C237.628 39.4174 237.129 39.8864 237.129 40.463ZM237.5 40.463C237.5 40.0786 237.832 39.7659 238.24 39.7659C238.649 39.7659 238.981 40.0786 238.981 40.463C238.981 40.8474 238.649 41.1601 238.24 41.1601C237.832 41.1601 237.5 40.8474 237.5 40.463Z" fill="#AF3A41"/>
<path d="M362.49 38.6078C362.49 38.6078 363.479 50.2237 361.886 53.6619" stroke="#00A3AD" stroke-width="1.9244" stroke-linecap="round" stroke-linejoin="round"/>
<path fill-rule="evenodd" clip-rule="evenodd" d="M366.105 53.9223C366.05 55.5892 363.137 55.9864 361.264 54.562C359.391 53.1376 357.53 52.5841 357.53 52.5841C357.53 52.5841 360.947 50.1912 362.973 50.6129C364.999 51.0345 366.16 52.2554 366.105 53.9223Z" fill="#67C1B0"/>
<path fill-rule="evenodd" clip-rule="evenodd" d="M363.606 45.9366V45.9366C364.424 45.9366 365.087 45.3124 365.087 44.5424V40.8826H361.198C360.38 40.8826 359.717 41.5068 359.717 42.2768V42.2768C359.717 44.2981 361.458 45.9366 363.606 45.9366Z" fill="#FF5A5A"/>
<path fill-rule="evenodd" clip-rule="evenodd" d="M363.427 41.9366V41.9366C362.608 41.9366 361.945 41.3124 361.945 40.5424V36.8826H365.834C366.652 36.8826 367.316 37.5068 367.316 38.2768V38.2768C367.316 40.2981 365.574 41.9366 363.427 41.9366Z" fill="#FF464B"/>
<path fill-rule="evenodd" clip-rule="evenodd" d="M363.427 31.8285V31.8285C362.608 31.8285 361.945 32.4527 361.945 33.2227V36.8825H365.834C366.652 36.8825 367.316 36.2583 367.316 35.4883V35.4883C367.316 33.467 365.574 31.8285 363.427 31.8285Z" fill="#FF5A5A"/>
<path fill-rule="evenodd" clip-rule="evenodd" d="M363.606 35.8285V35.8285C364.424 35.8285 365.087 36.4527 365.087 37.2227V40.8825H361.198C360.38 40.8825 359.717 40.2583 359.717 39.4883V39.4883C359.717 37.467 361.458 35.8285 363.606 35.8285Z" fill="#FF464B"/>
<path fill-rule="evenodd" clip-rule="evenodd" d="M362.992 44.7913C361.765 44.7913 360.77 45.7276 360.77 46.8826H362.992V44.7913Z" fill="#FF8C4E"/>
<path fill-rule="evenodd" clip-rule="evenodd" d="M364.167 36.8826C364.167 35.7276 363.172 34.7913 361.945 34.7913V36.8826H364.167Z" fill="#FFA555"/>
<path fill-rule="evenodd" clip-rule="evenodd" d="M361.945 38.9739C363.172 38.9739 364.167 38.0376 364.167 36.8826H361.945V38.9739Z" fill="#FF8C4E"/>
<path fill-rule="evenodd" clip-rule="evenodd" d="M360.77 46.8826C360.77 48.0376 361.765 48.9739 362.992 48.9739V46.8826H360.77Z" fill="#FFA555"/>
<path fill-rule="evenodd" clip-rule="evenodd" d="M368.147 38.6807C368.085 38.6044 367.969 38.5894 367.888 38.6481L366.078 39.9501L367.462 38.2475C367.524 38.1711 367.509 38.0617 367.427 38.0032C367.346 37.9448 367.23 37.9594 367.168 38.0358L364.955 40.7583L362.062 42.8401C361.981 42.8986 361.965 43.008 362.027 43.0844C362.064 43.1293 362.119 43.1529 362.175 43.1529C362.214 43.1529 362.254 43.1412 362.287 43.117L364.096 41.815L362.713 43.5176C362.651 43.5941 362.666 43.7035 362.747 43.762C362.781 43.7861 362.821 43.7978 362.86 43.7978C362.916 43.7978 362.971 43.7742 363.007 43.7294L365.219 41.0069L368.112 38.925C368.194 38.8666 368.209 38.7571 368.147 38.6807Z" fill="#D7464B"/>
<path fill-rule="evenodd" clip-rule="evenodd" d="M368.113 42.84L365.219 40.7582L363.007 38.0357C362.945 37.9592 362.829 37.9447 362.747 38.0031C362.666 38.0616 362.651 38.171 362.713 38.2474L364.096 39.95L362.287 38.648C362.206 38.5893 362.089 38.6043 362.027 38.6806C361.965 38.757 361.981 38.8664 362.062 38.9249L364.955 41.0068L367.168 43.7293C367.204 43.7741 367.259 43.7977 367.315 43.7977C367.354 43.7977 367.394 43.786 367.427 43.7619C367.508 43.7034 367.524 43.594 367.462 43.5175L366.078 41.8149L367.888 43.117C367.921 43.1411 367.961 43.1528 368 43.1528C368.056 43.1528 368.111 43.1292 368.147 43.0844C368.209 43.0079 368.194 42.8985 368.113 42.84Z" fill="#CD4146"/>
<path fill-rule="evenodd" clip-rule="evenodd" d="M364.659 46.8826C364.659 46.6479 364.494 46.4517 364.267 46.3856C364.378 46.1882 364.347 45.9394 364.171 45.7735C363.995 45.6076 363.73 45.5789 363.521 45.6827C363.45 45.4697 363.242 45.3141 362.992 45.3141C362.743 45.3141 362.534 45.4697 362.464 45.6827C362.254 45.5789 361.99 45.6075 361.814 45.7735C361.637 45.9394 361.607 46.1882 361.717 46.3855C361.491 46.4517 361.326 46.6479 361.326 46.8826C361.326 47.1172 361.491 47.3134 361.717 47.3796C361.607 47.5769 361.637 47.8257 361.814 47.9916C361.99 48.1576 362.254 48.1863 362.464 48.0825C362.534 48.2954 362.743 48.451 362.992 48.451C363.242 48.451 363.45 48.2954 363.52 48.0825C363.73 48.1863 363.995 48.1576 364.171 47.9917C364.347 47.8257 364.378 47.5769 364.267 47.3796C364.494 47.3135 364.659 47.1172 364.659 46.8826Z" fill="#91323C"/>
<path fill-rule="evenodd" clip-rule="evenodd" d="M360.834 36.8826C360.834 37.4592 361.332 37.9283 361.945 37.9283C362.558 37.9283 363.056 37.4592 363.056 36.8826C363.056 36.306 362.558 35.8369 361.945 35.8369C361.332 35.8369 360.834 36.306 360.834 36.8826ZM361.204 36.8826C361.204 36.4982 361.536 36.1855 361.945 36.1855C362.353 36.1855 362.686 36.4982 362.686 36.8826C362.686 37.267 362.353 37.5797 361.945 37.5797C361.536 37.5797 361.204 37.267 361.204 36.8826Z" fill="#AF3A41"/>
<path d="M97.5581 46.1638C97.5581 46.1638 95.8445 53.4317 97.9009 56.6007" stroke="#00A3AD" stroke-width="2" stroke-linecap="round" stroke-linejoin="round"/>
<path fill-rule="evenodd" clip-rule="evenodd" d="M97.9009 56.4518C97.9009 56.4518 96.9865 53.0379 97.9009 50.9823C98.8153 48.9268 101.114 46.2396 101.328 46.5348C101.542 46.8301 100.192 50.5349 99.4114 52.9344C98.631 55.334 97.9009 56.4518 97.9009 56.4518Z" fill="#00A3AD"/>
<path fill-rule="evenodd" clip-rule="evenodd" d="M96.6283 42.556C96.6291 42.0586 96.7518 41.5683 96.9865 41.125L96.3709 40.2383C96.3301 40.1795 96.2615 40.1442 96.188 40.1442C96.1146 40.1442 96.0459 40.1795 96.0051 40.2383L95.46 41.0255L96.6283 43.4909V42.556Z" fill="#D1374A"/>
<path fill-rule="evenodd" clip-rule="evenodd" d="M100.365 40.707L100.214 41.0255L99.2661 43.0269V42.556C99.2661 41.7153 98.9188 40.9088 98.3005 40.3142L98.1026 40.124C98.0168 40.0415 97.8776 40.0415 97.7919 40.124L97.5939 40.3142C96.9789 40.911 96.6322 41.716 96.6283 42.556V43.491L95.4599 41.0255L95.3093 40.707C95.1138 40.3808 94.7948 40.1396 94.4189 40.0338C94.3364 40.0092 94.2464 40.0333 94.1889 40.0952C94.1313 40.1571 94.1164 40.2457 94.151 40.3218L94.6234 41.344C94.7858 41.6953 94.8697 42.0756 94.8697 42.4601V44.202C94.8697 45.6028 96.0508 46.7385 97.5075 46.7385H98.167C99.6238 46.7385 100.805 45.6028 100.805 44.202V42.4601C100.805 42.0756 100.889 41.6953 101.051 41.344L101.524 40.3218C101.558 40.2457 101.543 40.1571 101.486 40.0952C101.428 40.0333 101.338 40.0092 101.256 40.0338C100.88 40.1396 100.561 40.3808 100.365 40.707Z" fill="#DE3A4F"/>
<path fill-rule="evenodd" clip-rule="evenodd" d="M99.2661 43.0269L100.215 41.0255L100.233 40.9868L99.6688 40.2383C99.6281 40.1795 99.5594 40.1442 99.4859 40.1442C99.4125 40.1442 99.3438 40.1795 99.3031 40.2383L98.7689 40.8881C99.0929 41.3888 99.265 41.9663 99.2661 42.556V43.0269Z" fill="#D1374A"/>
<path d="M379.962 43.342C379.962 43.342 377.846 52.4269 380.386 56.3881" stroke="#0C7076" stroke-width="1.9244" stroke-linecap="round" stroke-linejoin="round"/>
<path fill-rule="evenodd" clip-rule="evenodd" d="M380.386 56.2021C380.386 56.2021 379.256 51.9346 380.386 49.3652C381.515 46.7957 384.355 43.4368 384.619 43.8058C384.884 44.1749 383.216 48.8059 382.252 51.8053C381.288 54.8048 380.386 56.2021 380.386 56.2021Z" fill="#0C7076"/>
<path fill-rule="evenodd" clip-rule="evenodd" d="M378.814 35.8322C378.815 35.2105 378.966 34.5977 379.256 34.0435L378.496 32.9352C378.445 32.8616 378.361 32.8175 378.27 32.8175C378.179 32.8175 378.094 32.8616 378.044 32.9352L377.37 33.9191L378.814 37.001V35.8322Z" fill="#D1374A"/>
<path fill-rule="evenodd" clip-rule="evenodd" d="M383.43 33.521L383.244 33.9191L382.072 36.4209V35.8322C382.072 34.7813 381.643 33.7732 380.879 33.03L380.635 32.7922C380.529 32.6891 380.357 32.6891 380.251 32.7922L380.007 33.03C379.247 33.7759 378.819 34.7822 378.814 35.8322V37.001L377.37 33.9191L377.184 33.521C376.943 33.1132 376.549 32.8117 376.084 32.6795C375.982 32.6488 375.871 32.6788 375.8 32.7562C375.729 32.8336 375.711 32.9443 375.753 33.0395L376.337 34.3173C376.538 34.7564 376.641 35.2317 376.641 35.7124V37.8897C376.641 39.6408 378.1 41.0603 379.9 41.0603H380.714C382.514 41.0603 383.973 39.6408 383.973 37.8897V35.7124C383.973 35.2317 384.077 34.7564 384.277 34.3173L384.861 33.0395C384.904 32.9443 384.885 32.8336 384.814 32.7562C384.743 32.6788 384.632 32.6488 384.53 32.6795C384.066 32.8117 383.672 33.1132 383.43 33.521Z" fill="#DE3A4F"/>
<path fill-rule="evenodd" clip-rule="evenodd" d="M382.072 39.4209L383.244 36.9191L383.267 36.8708L382.57 35.9352C382.519 35.8616 382.435 35.8175 382.344 35.8175C382.253 35.8175 382.168 35.8616 382.118 35.9352L381.458 36.7474C381.858 37.3733 382.071 38.0952 382.072 38.8322V39.4209Z" fill="#D1374A"/>
<path fill-rule="evenodd" clip-rule="evenodd" d="M293.131 39.214L293.835 37.2344C293.895 37.0663 294.065 36.9592 294.248 36.974C294.431 36.9888 294.58 37.122 294.611 37.2973L295.113 40.2059C295.144 40.3667 295.154 40.5304 295.145 40.6936C295.012 42.3083 293.619 43.5533 291.945 43.5533C290.271 43.5533 288.878 42.3083 288.746 40.6936C288.736 40.5304 288.746 40.3667 288.777 40.2059L289.276 37.3042C289.306 37.129 289.455 36.9962 289.638 36.9814C289.821 36.9668 289.991 37.0741 290.051 37.2422L290.74 39.1867L293.131 39.214Z" fill="#E05955"/>
<path fill-rule="evenodd" clip-rule="evenodd" d="M292.276 51.7346C292.543 51.91 292.799 52.1008 293.042 52.3061C291.975 49.5352 291.446 46.5978 291.481 43.6411V43.2529H292.284V43.6411C292.284 48.3473 293.433 51.1877 294.446 53.6939C294.499 53.8257 294.55 53.9513 294.601 54.0798C294.752 54.3127 294.89 54.553 295.014 54.7998C294.963 53.3805 296.032 50.7357 296.032 50.7357C296.032 50.7357 297.95 44.771 297.9 47.5225C297.851 50.274 297.605 57.0735 295.014 57.7275C292.423 58.3814 289.212 50.8436 288.673 49.8514C288.134 48.8592 292.276 51.7346 292.276 51.7346Z" fill="#0C7076"/>
<path fill-rule="evenodd" clip-rule="evenodd" d="M290.739 42.3662V39.4588C290.739 38.5629 290.955 37.6793 291.369 36.8784L291.584 36.4622C291.652 36.3309 291.791 36.248 291.943 36.248C292.095 36.248 292.233 36.3309 292.301 36.4622L292.517 36.8784C292.931 37.6795 293.146 38.5629 293.146 39.4588V42.3003C293.161 42.9365 292.662 43.4746 292.007 43.5307C291.677 43.5479 291.354 43.4329 291.114 43.2126C290.874 42.9922 290.739 42.6861 290.739 42.3662Z" fill="#FF694F"/>
</g>
</svg>
